<svg id="Capa_1" data-name="Capa 1" xmlns="http://www.w3.org/2000/svg" viewBox="0 0 1080 1080"><defs><style>.cls-1{fill:#fff;}.cls-2{fill:#881919;}</style></defs><title>Pasos_hazpanencasa</title><path class="cls-1" d="M1024.07,669.71a498.82,498.82,0,0,0-.06-259.4L540,540Z"/><path class="cls-1" d="M1024,410.31A498.91,498.91,0,0,0,894.37,185.63L540,540Z"/><path class="cls-1" d="M540,540,410.29,1024.07a498.82,498.82,0,0,0,259.4-.06L540,540Z"/><path class="cls-1" d="M540,540,56,669.69A498.91,498.91,0,0,0,185.63,894.37L540,540Z"/><path class="cls-1" d="M185.63,894.37a503.49,503.49,0,0,0,224.66,129.7L540,540Z"/><path class="cls-1" d="M1024.07,669.71,540,540h0L894.37,894.37A503.49,503.49,0,0,0,1024.07,669.71Z"/><path class="cls-1" d="M540,540l129.69,484A498.91,498.91,0,0,0,894.37,894.37L540,540Z"/><path class="cls-1" d="M540,540,55.93,410.29A498.82,498.82,0,0,0,56,669.69L540,540Z"/><path class="cls-1" d="M410.31,56A498.91,498.91,0,0,0,185.63,185.63L540,540Z"/><path class="cls-1" d="M669.71,55.93a498.82,498.82,0,0,0-259.4.06L540,540Z"/><path class="cls-2" d="M540,540,185.63,185.63A503.49,503.49,0,0,0,55.93,410.29L540,540Z"/><path class="cls-1" d="M540,540h0L894.37,185.63A503.49,503.49,0,0,0,669.71,55.93L540,540Z"/><path class="cls-2" d="M540,48.2a491.93,491.93,0,0,1,191.43,945A491.93,491.93,0,0,1,348.57,86.84,488.73,488.73,0,0,1,540,48.2m0-18.56C258.14,29.64,29.64,258.14,29.64,540S258.14,1050.36,540,1050.36,1050.36,821.86,1050.36,540,821.86,29.64,540,29.64Z"/><path class="cls-2" d="M547.27,171.51V94.75a2.43,2.43,0,0,0-.71-1.71,2.07,2.07,0,0,0-1.71-.71l-9.7,0a2.43,2.43,0,0,0-2.42,2.42v76.73a17,17,0,0,0,3.66,31.91,18,18,0,0,0,3.59.37,17,17,0,0,0,7.29-32.28Zm4.16,19.35a12.07,12.07,0,0,1-3.8,5.37h0A12.11,12.11,0,1,1,536,175.42a2.44,2.44,0,0,0,1.63-2.28V97.2l4.84,0v76a2.44,2.44,0,0,0,1.63,2.29A12.09,12.09,0,0,1,551.43,190.86Z"/><path class="cls-2" d="M566.54,169.85a31.49,31.49,0,0,0-9.58-9.58V145.64h7.27a2.43,2.43,0,0,0,0-4.85H557V136h7.27a2.43,2.43,0,0,0,0-4.85H557v-4.85h7.27a2.42,2.42,0,0,0,0-4.84H557v-4.85h7.27a2.43,2.43,0,0,0,0-4.85H557v-4.84h7.27a2.43,2.43,0,0,0,0-4.85H557V89.91a17,17,0,1,0-33.92,0v70.36a31.5,31.5,0,1,0,43.5,9.58ZM540,213.48a26.65,26.65,0,0,1-13.33-49.75,2.41,2.41,0,0,0,1.21-2.1V89.91a12.12,12.12,0,1,1,24.24,0v71.72a2.41,2.41,0,0,0,1.21,2.1A26.65,26.65,0,0,1,540,213.48Z"/><g id="outline"><path class="cls-2" d="M798.25,142.54h-136a2.34,2.34,0,0,0-2.34,2.34,25.83,25.83,0,0,0,25.8,25.81h30.49v9.38h-4.69a2.35,2.35,0,0,0-2.35,2.34v11.73H698.75a11.73,11.73,0,0,0-11.66,10.43l-7.3,65.68a11.73,11.73,0,0,0,10.36,12.95,11.33,11.33,0,0,0,1.3.07H769a11.73,11.73,0,0,0,11.73-11.72,11.2,11.2,0,0,0-.07-1.3l-7.3-65.68a11.73,11.73,0,0,0-11.66-10.43H751.34V182.41a2.35,2.35,0,0,0-2.35-2.34H744.3v-9.38h30.49a25.83,25.83,0,0,0,25.8-25.81A2.34,2.34,0,0,0,798.25,142.54ZM761.7,198.83a7,7,0,0,1,7,6.26l7.3,65.68a7.07,7.07,0,0,1-1.75,5.47,7,7,0,0,1-5.24,2.34H691.45a7,7,0,0,1-5.24-2.34,7.05,7.05,0,0,1-1.75-5.48l7.29-65.67a7,7,0,0,1,7-6.26Zm-15.06-14.07v9.38H742v-4.69h-4.69v4.69h-4.69v-4.69h-4.69v4.69h-4.69v-4.69H718.5v4.69h-4.69v-9.38Zm-25.8-4.69v-9.38h18.77v9.38ZM774.79,166H685.66a21.13,21.13,0,0,1-21-18.76H795.77A21.13,21.13,0,0,1,774.79,166Z"/><path class="cls-2" d="M702.08,238.71a28.15,28.15,0,1,0,28.14-28.15A28.14,28.14,0,0,0,702.08,238.71Zm28.14-2.35a2.35,2.35,0,1,1-2.34,2.35A2.35,2.35,0,0,1,730.22,236.36Zm-2.34-21V232.1a7,7,0,1,0,4.69,0V215.37a23.45,23.45,0,1,1-4.69,0Z"/><rect class="cls-2" x="678.62" y="156.61" width="28.15" height="4.69"/></g><g id="outline-2" data-name="outline"><path class="cls-2" d="M363.65,225.15a2.45,2.45,0,1,0-4.9,0c0,1.53-.58,2.19-1.54,3.28a9.08,9.08,0,0,0,0,13c1,1.1,1.54,1.76,1.54,3.29a2.45,2.45,0,1,0,4.9,0,9.08,9.08,0,0,0-2.75-6.51c-1-1.1-1.54-1.76-1.54-3.29s.58-2.19,1.54-3.28A9.1,9.1,0,0,0,363.65,225.15Z"/><path class="cls-2" d="M378.34,225.15a2.45,2.45,0,0,0-4.9,0c0,1.53-.58,2.19-1.54,3.28a9.1,9.1,0,0,0,0,13c1,1.1,1.54,1.76,1.54,3.29a2.45,2.45,0,0,0,4.9,0,9.08,9.08,0,0,0-2.75-6.51c-1-1.1-1.54-1.76-1.54-3.29s.58-2.19,1.54-3.28A9.1,9.1,0,0,0,378.34,225.15Z"/><path class="cls-2" d="M349,225.15a2.45,2.45,0,1,0-4.89,0c0,1.53-.58,2.19-1.54,3.28a9.08,9.08,0,0,0,0,13c1,1.1,1.54,1.76,1.54,3.29a2.45,2.45,0,1,0,4.89,0,9.08,9.08,0,0,0-2.74-6.51c-1-1.1-1.54-1.76-1.54-3.29s.58-2.19,1.54-3.28A9.1,9.1,0,0,0,349,225.15Z"/><path class="cls-2" d="M415.37,178.62H302.73a2.45,2.45,0,0,0-2.44,2.45v88.16a2.44,2.44,0,0,0,2.44,2.44H415.37a2.44,2.44,0,0,0,2.45-2.44V181.07A2.45,2.45,0,0,0,415.37,178.62Zm-2.44,88.16H305.18V183.52H412.93Z"/><path class="cls-2" d="M419.05,139.45h-120a13.48,13.48,0,0,0-13.47,13.46v120a13.49,13.49,0,0,0,13.47,13.47h120a13.49,13.49,0,0,0,13.47-13.47v-120A13.48,13.48,0,0,0,419.05,139.45ZM290.49,152.91a8.59,8.59,0,0,1,8.57-8.57h120a8.59,8.59,0,0,1,8.57,8.57v11H290.49ZM419.05,281.47h-120a8.59,8.59,0,0,1-8.57-8.57V168.83H427.62V272.9A8.59,8.59,0,0,1,419.05,281.47Z"/><path class="cls-2" d="M376.2,146.79H341.91a2.45,2.45,0,0,0-2.45,2.45V159a2.45,2.45,0,0,0,2.45,2.45H376.2a2.44,2.44,0,0,0,2.44-2.45v-9.79A2.45,2.45,0,0,0,376.2,146.79Zm-2.45,9.8H344.36v-4.9h29.39Z"/><path class="cls-2" d="M317.43,212.91h83.25a7.34,7.34,0,0,0,2.45-14.27v-7.77a2.45,2.45,0,0,0-2.45-2.45h-9.79a2.45,2.45,0,0,0-2.45,2.45v7.34H329.67v-7.34a2.45,2.45,0,0,0-2.45-2.45h-9.79a2.45,2.45,0,0,0-2.45,2.45v7.77a7.34,7.34,0,0,0,2.45,14.27Zm75.91-19.59h4.89v4.89h-4.89Zm-73.46,0h4.89v4.89h-4.89Zm-2.45,9.79h83.25a2.45,2.45,0,0,1,0,4.9H317.43a2.45,2.45,0,0,1,0-4.9Z"/><path class="cls-2" d="M327.22,146.79a7.35,7.35,0,1,0,7.35,7.35A7.34,7.34,0,0,0,327.22,146.79Zm0,9.8a2.45,2.45,0,1,1,2.45-2.45A2.45,2.45,0,0,1,327.22,156.59Z"/><path class="cls-2" d="M307.63,146.79a7.35,7.35,0,1,0,7.35,7.35A7.34,7.34,0,0,0,307.63,146.79Zm0,9.8a2.45,2.45,0,1,1,2.45-2.45A2.45,2.45,0,0,1,307.63,156.59Z"/><path class="cls-2" d="M410.48,146.79a7.35,7.35,0,1,0,7.34,7.35A7.35,7.35,0,0,0,410.48,146.79Zm0,9.8a2.45,2.45,0,1,1,2.45-2.45A2.45,2.45,0,0,1,410.48,156.59Z"/><path class="cls-2" d="M390.89,146.79a7.35,7.35,0,1,0,7.34,7.35A7.35,7.35,0,0,0,390.89,146.79Zm0,9.8a2.45,2.45,0,1,1,2.45-2.45A2.45,2.45,0,0,1,390.89,156.59Z"/><path class="cls-2" d="M381.09,257H337a2.45,2.45,0,1,0,0,4.9h44.07a2.45,2.45,0,1,0,0-4.9Z"/><path class="cls-2" d="M393.34,257h-2.45a2.45,2.45,0,1,0,0,4.9h2.45a2.45,2.45,0,0,0,0-4.9Z"/></g><path class="cls-2" d="M393.45,891.66a56.43,56.43,0,0,0-43.89-49.49v-7.11a9.51,9.51,0,0,0-2.3-18.73H327.13a9.5,9.5,0,0,0-2.29,18.73v7.13a56.09,56.09,0,0,0-27.54,15.14,57.07,57.07,0,0,0-4.75,5.39H272.41a2.8,2.8,0,0,0,0,5.6h16.34a56.09,56.09,0,0,0-5,10.74H253.35a2.8,2.8,0,1,0,0,5.6H282.2a57.21,57.21,0,0,0-1.38,10.74H268.45a2.8,2.8,0,1,0,0,5.6h12.46a55.94,55.94,0,0,0,1.74,10.74H264.54a2.8,2.8,0,0,0,0,5.6h19.9a56.47,56.47,0,0,0,47.22,36.16c1.84.18,3.69.27,5.54.27A56.63,56.63,0,0,0,368,944.65a2.8,2.8,0,1,0-3-4.69,50.9,50.9,0,1,1,15-15,2.8,2.8,0,1,0,4.69,3A56.71,56.71,0,0,0,393.45,891.66Zm-70.23-65.82a3.92,3.92,0,0,1,3.91-3.92h20.13a3.92,3.92,0,1,1,0,7.83H327.13A3.91,3.91,0,0,1,323.22,825.84Zm7.21,15.39v-5.89H344v5.88A56.27,56.27,0,0,0,330.43,841.23Z"/><path class="cls-2" d="M375.21,932.44a2.8,2.8,0,1,0,2,.82A2.82,2.82,0,0,0,375.21,932.44Z"/><path class="cls-2" d="M337.24,853.9a43.38,43.38,0,1,0,43.38,43.38A43.43,43.43,0,0,0,337.24,853.9Zm0,81.16A37.79,37.79,0,1,1,375,897.28,37.83,37.83,0,0,1,337.24,935.06Z"/><path class="cls-2" d="M367.14,894.51h-2.59a2.8,2.8,0,1,0,0,5.6h2.59a2.8,2.8,0,0,0,0-5.6Z"/><path class="cls-2" d="M309.93,894.45h-2.59a2.8,2.8,0,0,0,0,5.59h2.59a2.8,2.8,0,1,0,0-5.59Z"/><path class="cls-2" d="M337.27,872.77a2.8,2.8,0,0,0,2.8-2.8v-2.59a2.8,2.8,0,1,0-5.59,0V870A2.8,2.8,0,0,0,337.27,872.77Z"/><path class="cls-2" d="M337.21,921.79a2.79,2.79,0,0,0-2.8,2.79v2.59a2.8,2.8,0,1,0,5.59,0v-2.59A2.79,2.79,0,0,0,337.21,921.79Z"/><path class="cls-2" d="M253.35,911.73a2.8,2.8,0,1,0,2,.82A2.82,2.82,0,0,0,253.35,911.73Z"/><path class="cls-2" d="M334.37,899.55a27.45,27.45,0,0,0,4.18-4.56,7.75,7.75,0,0,0,1.69-4.49,3.14,3.14,0,0,0-.58-2,2.07,2.07,0,0,0-1.71-.72,2,2,0,0,0-1.81,1,5,5,0,0,0-.6,2.87H327.9a11.87,11.87,0,0,1,1.57-5.93,8.79,8.79,0,0,1,3.78-3.46,11.88,11.88,0,0,1,5.18-1.1c3.3,0,5.75.81,7.36,2.45a8.65,8.65,0,0,1,2.41,6.35,12.69,12.69,0,0,1-2.79,7.84,30.5,30.5,0,0,1-7,6.56h10.06v6.39H328v-5.91C330.58,902.78,332.71,901,334.37,899.55Z"/><path class="cls-2" d="M687,877.75a20.31,20.31,0,0,0-13.66,17c-.37,3,4.27,2.93,4.64,0a15.46,15.46,0,0,1,10.25-12.49C691,881.25,689.83,876.77,687,877.75Z"/><path class="cls-2" d="M819.63,878.21l-.71-.8c-4.63-5.24-6.11-10.1-7.83-15.73a60.22,60.22,0,0,0-5.37-13.34c-5.64-9.77-17.58-13.67-33.6-11-19,3.2-42.85,15.85-55.35,29.89a20.27,20.27,0,0,0-5.59-3.8c-4.59-2.06-10.19-2.46-16.66-1.19-11.34,2.24-25.66,12.46-30,25.69-2.7,8.25-.94,16.09,5.1,22.67,3.71,4,9.34,6.13,16.44,6.13a40.44,40.44,0,0,0,4.31-.24,51.07,51.07,0,0,0,8.43-1.66,21.32,21.32,0,0,0,11.86,14.22c6.2,3,11.78,4.49,16.87,4.49a23.74,23.74,0,0,0,6.51-.88c5.62-1.57,10.76-5.33,15.73-11.49.23-.28.44-.57.66-.86a142.4,142.4,0,0,0,25,2.35c.77,0,1.52,0,2.23,0,13.18-.29,32-1.87,43.51-12.09C836.35,897.06,827.47,887.05,819.63,878.21Zm-121.5,30.38a44.83,44.83,0,0,1-8.42,1.77c-7,.75-12.53-.64-15.53-3.92-4.5-4.9-5.77-10.48-3.78-16.56,3.47-10.59,15.89-19.69,25.32-21.55a30,30,0,0,1,5.81-.61,17.18,17.18,0,0,1,7.11,1.38,14.45,14.45,0,0,1,4.3,3,18.7,18.7,0,0,1,2.08,2.48,22.38,22.38,0,0,1,1.76,3c.24.49.47,1,.68,1.52-.64.29-1.28.61-1.9,1a31.39,31.39,0,0,0-4,2.59l-.47.35a32.13,32.13,0,0,0-3,2.73C702.07,892,698.29,900.6,698.13,908.59Zm53-3a23.63,23.63,0,0,1-3.38,7.88c-.56.89-1.19,1.79-1.9,2.71-.27.37-.55.73-.84,1.1-.45.55-.89,1.06-1.33,1.56-3.69,4.19-7.39,6.77-11.26,7.86-5.26,1.47-11.48.42-19-3.23-4.77-2.31-7.67-5.89-8.66-10.65-.12-.54-.22-1.08-.29-1.65s-.09-1-.1-1.56a21.37,21.37,0,0,1,.21-3.45,30,30,0,0,1,7-14.93,27,27,0,0,1,2.79-2.77l.69-.59a24.61,24.61,0,0,1,7.15-4,26.62,26.62,0,0,1,3-.87,22.91,22.91,0,0,1,14.78,1.39C747.79,888.18,752.72,897.48,751.08,905.62Zm66,.32c-10,8.86-27.34,10.25-39.54,10.53a130.89,130.89,0,0,1-23.38-1.74,28,28,0,0,0,3-7.89c2.22-11-4.08-23-14.65-28a29.31,29.31,0,0,0-19.18-1.7,30.11,30.11,0,0,0-2.55-5c10.74-12.48,33.18-25.42,52.38-28.65a52.06,52.06,0,0,1,8.54-.76c7.35,0,14.78,2,18.68,8.74a54.09,54.09,0,0,1,4.81,12c1.77,5.79,3.6,11.78,9.12,18l.71.81C823.53,891.93,827.17,897,817.07,905.94Z"/><path class="cls-2" d="M715.07,891.39l-.37.37a21.39,21.39,0,0,0-2.36,2.79,21,21,0,0,0-3.64,9.51,21.29,21.29,0,0,0,.32,6.84,20.94,20.94,0,0,0,2.35,6.11c1.5,2.59,5.51.25,4-2.34a16.15,16.15,0,0,1-2.08-6.15,15.63,15.63,0,0,1,0-3.68,15.4,15.4,0,0,1,1.32-4.89c.08-.17.16-.35.25-.53a16.76,16.76,0,0,1,3.52-4.75C720.53,892.61,717.24,889.34,715.07,891.39Z"/><path class="cls-2" d="M783.85,875.68c-6.71,2.86-13.06-7.4-18.28-10.1-3.85-2-7.85-2.35-11.52.14-2.45,1.66-.14,5.69,2.34,4,6.58-4.47,13.17,5.71,18.17,8.8,3.85,2.37,7.47,2.94,11.63,1.16C788.93,878.51,786.57,874.51,783.85,875.68Z"/><path class="cls-1" d="M284.18,350.81a2.63,2.63,0,0,0-3.4,4c5.69,4.83,8.7,10.23,8.71,15.62a12.68,12.68,0,0,1-4,9.35c-4.47,4.47-12.79,7.8-24.73,9.9-10.72,1.88-24.14,2.8-41.05,2.76-26.1,0-44.52-2.29-56-6.88q6.66-4.74,14.28-11.4a9.3,9.3,0,0,0,6.23,3.31A9.41,9.41,0,0,0,194.48,369a56.24,56.24,0,0,0,0-10.38q6.92-6.9,12.51-13.07a35.41,35.41,0,0,1,4.79,21.65,9.48,9.48,0,0,0,8.44,10.32,9.36,9.36,0,0,0,10.23-8.47,55.28,55.28,0,0,0-.73-15.74,54.47,54.47,0,0,0-5.63-15.63,143.08,143.08,0,0,1,14.75,1.22,37.84,37.84,0,0,1,8,18,35.68,35.68,0,0,1,0,10.32,9.38,9.38,0,1,0,18.57,2.69,55,55,0,0,0,0-15.75,53.79,53.79,0,0,0-2.21-9.22,79.35,79.35,0,0,1,7.45,3.3,2.63,2.63,0,0,0,2.38-4.69c-14.44-7.35-34.41-11.4-54.93-11.21,1.42-1.83,2.74-3.61,4-5.36,7.69-11,11.44-20,11.44-27.5a17.92,17.92,0,0,0-5.36-13.14c-7.43-7.42-20-8.58-35.42-3.29-14.78,5.07-30.62,15.54-44.6,29.48-20.25,20.19-32.82,43.9-32.82,61.88,0,7.45,2.26,13.66,6.56,17.94a17.86,17.86,0,0,0,13.1,5.33c5.47,0,11.82-2,19-6q2.2-1.23,4.54-2.7c12,5.79,32,8.63,61.18,8.67,16.67,0,31.19-.95,42-2.84,13.21-2.32,22.21-6,27.54-11.37a17.89,17.89,0,0,0,5.5-13.07c0-7-3.66-13.76-10.56-19.62Zm-27.4-8.05a48.87,48.87,0,0,1,3.5,26.45,4.11,4.11,0,0,1-4.65,3.53,4.21,4.21,0,0,1-3.51-4.76,41,41,0,0,0-6-27.85c3.69.73,7.25,1.6,10.65,2.63Zm-67.53,25.76a4.12,4.12,0,0,1-4.09,3.76,4.06,4.06,0,0,1-3.25-1.61q3.66-3.33,7.57-7.1c0,1.65-.07,3.3-.23,4.95Zm35.34-14.19a49.9,49.9,0,0,1,.66,14.24,4.12,4.12,0,0,1-4.49,3.74,4.2,4.2,0,0,1-3.72-4.59,40.73,40.73,0,0,0-6.37-26.25c1.1-1.27,2.16-2.51,3.18-3.74,1.38-.05,2.77-.09,4.16-.1a49.68,49.68,0,0,1,6.58,16.7ZM181.8,293.65a49.2,49.2,0,0,1,11.07,6.16A49.84,49.84,0,0,1,203,309.87a4.1,4.1,0,0,1-.48,5.53,4.21,4.21,0,0,1-6.16-.62,41.14,41.14,0,0,0-8.37-8.35,41.56,41.56,0,0,0-15.54-7.11c3.12-2.1,6.26-4,9.39-5.67Zm-51.57,50.66A48.65,48.65,0,0,1,141.71,350a49.63,49.63,0,0,1,10.54,9.59,4.12,4.12,0,0,1-.23,5.55,4.21,4.21,0,0,1-6.18-.34,41.7,41.7,0,0,0-8.73-8,41.16,41.16,0,0,0-10.69-5.11c1.12-2.45,2.4-4.93,3.81-7.43Zm21.23,42.83c-11.84,6.56-20.29,7.05-25.84,1.52-3.33-3.32-5-8.11-5-14.22a51.09,51.09,0,0,1,3.77-17.83,35.3,35.3,0,0,1,17.42,11.55,9.48,9.48,0,0,0,13.94.72,9.34,9.34,0,0,0,.57-12.61A54.21,54.21,0,0,0,133,339.71c2.15-3.41,4.55-6.82,7.18-10.19a38.69,38.69,0,0,1,19.49,6.27,36.07,36.07,0,0,1,7.62,6.95,9.38,9.38,0,1,0,14.51-11.9,55.19,55.19,0,0,0-6.87-7,2.62,2.62,0,1,0-3.4,4,50.9,50.9,0,0,1,6.22,6.32,4.11,4.11,0,0,1-.53,5.82,4.19,4.19,0,0,1-5.87-.62,41.43,41.43,0,0,0-8.74-8,42.76,42.76,0,0,0-18.43-6.81q3.12-3.66,6.58-7.19a51.14,51.14,0,0,1,11.08,4,2.63,2.63,0,1,0,2.36-4.69,56.06,56.06,0,0,0-9.08-3.59,141.72,141.72,0,0,1,11.3-9.56,37.87,37.87,0,0,1,18.41,7,35.77,35.77,0,0,1,7.3,7.29,9.5,9.5,0,0,0,13.9,1.34,9.32,9.32,0,0,0,1.14-12.57A55.21,55.21,0,0,0,196,295.59a54.43,54.43,0,0,0-8.08-4.95c2.21-1,4.39-1.85,6.56-2.59a49.32,49.32,0,0,1,15.76-3c6,0,10.89,1.69,14.24,5a12.62,12.62,0,0,1,3.81,9.42c0,6.32-3.53,14.56-10.49,24.49a133,133,0,0,1-12.34,15.43c-15.65,16.29-34.62,37-54,47.71Z"/><path class="cls-2" d="M933.21,323.12H907.33l30.07-30.07A8.55,8.55,0,0,0,925.31,281l-42.17,42.17h-75a6.71,6.71,0,0,0,0,13.41h2.23v6.7a47,47,0,0,0,28.12,42.95,11.16,11.16,0,0,0-8,10.66v2.24h80.42v-2.24a11.16,11.16,0,0,0-8-10.66A47,47,0,0,0,931,343.23v-6.7h2.24a6.71,6.71,0,0,0,0-13.41Zm-4.74-39a4.08,4.08,0,1,1,5.77,5.78L901,323.12H889.46Zm-58.74,52.42-2.53,2.54a6.39,6.39,0,0,1-4.68,2,23.64,23.64,0,0,0-15.13,5.19,46.8,46.8,0,0,0-8-.76c-11.32,0-19.52,2.27-23.69,6.35a41.83,41.83,0,0,1-.88-8.58v-6.7ZM872.87,356c.22,4.93-2.1,10.33-6.22,14.45-6.91,6.91-16.74,8.32-21.92,3.14-2.43-2.44-3.5-6-3-10a20.81,20.81,0,0,1,6.12-11.88c4.13-4.12,9.55-6.46,14.46-6.22a10.78,10.78,0,0,0,8-3.26l5.7-5.7h11.56L876.13,348A10.75,10.75,0,0,0,872.87,356Zm-35.56,7a19.12,19.12,0,0,0,0,4.72c-7.67-.22-13.69-1.61-17.16-4a41.92,41.92,0,0,1-2.85-6.37c1.47-4.55,10-7.46,22.09-7.46,1.26,0,2.55.07,3.86.2A24.79,24.79,0,0,0,837.31,363Zm62.39,27.1a6.72,6.72,0,0,1,6.32,4.47H835.3a6.72,6.72,0,0,1,6.32-4.47Zm-15.64-4.47h-26.8a42.36,42.36,0,0,1-32.39-15.07,55.09,55.09,0,0,0,13.62,1.65,14.89,14.89,0,0,0,3.08,4.54,15.67,15.67,0,0,0,11.26,4.39,24.55,24.55,0,0,0,17-7.53,26.16,26.16,0,0,0,6.79-11.6c9-3.94,17.6-7.65,25.33-7.65a79.1,79.1,0,0,1,22.14,2.87A42.48,42.48,0,0,1,884.06,385.67Zm42.45-42.44a42.38,42.38,0,0,1-1.18,9.75,84,84,0,0,0-23.4-3.05c-7.9,0-16,3.24-24.62,6.94,0-.35,0-.7,0-1a6.3,6.3,0,0,1,2-4.67l14.63-14.63h32.59Zm6.7-11.17H808.11a2.24,2.24,0,0,1,0-4.47h125.1a2.24,2.24,0,0,1,0,4.47Z"/><path class="cls-2" d="M861.67,349.93c-3.57,0-7.55,1.85-10.65,4.94a16.54,16.54,0,0,0-4.84,9.28,7.41,7.41,0,0,0,1.71,6.31,6.75,6.75,0,0,0,5,1.81c3.58,0,7.55-1.85,10.65-4.94a16.56,16.56,0,0,0,4.85-9.28,7.44,7.44,0,0,0-1.72-6.31A6.75,6.75,0,0,0,861.67,349.93Zm2.24,7.57a12,12,0,0,1-3.58,6.67c-2.24,2.24-5.11,3.63-7.49,3.63a2.66,2.66,0,0,1-1.79-.49,3.4,3.4,0,0,1-.44-2.61,12,12,0,0,1,3.57-6.67c2.24-2.24,5.11-3.63,7.49-3.63a2.64,2.64,0,0,1,1.79.49A3.44,3.44,0,0,1,863.91,357.5Z"/><path class="cls-2" d="M1004.13,546.61a56.46,56.46,0,0,0-43.89-49.49V490A9.51,9.51,0,0,0,958,471.28H937.81A9.51,9.51,0,0,0,935.52,490v7.12A56.19,56.19,0,0,0,908,512.29a58.53,58.53,0,0,0-4.75,5.39H883.1a2.8,2.8,0,1,0,0,5.59h16.33a56.13,56.13,0,0,0-5,10.75H864a2.8,2.8,0,0,0,0,5.59h28.86a56.62,56.62,0,0,0-1.39,10.75H879.13a2.8,2.8,0,0,0,0,5.59h12.46a57,57,0,0,0,1.74,10.75H875.22a2.8,2.8,0,1,0,0,5.59h19.9a56.47,56.47,0,0,0,47.22,36.16,54.23,54.23,0,0,0,5.54.28,56.58,56.58,0,0,0,30.83-9.12,2.79,2.79,0,1,0-3.05-4.68,50.9,50.9,0,1,1,15-15,2.8,2.8,0,1,0,4.69,3.05A56.73,56.73,0,0,0,1004.13,546.61ZM933.9,480.79a3.92,3.92,0,0,1,3.91-3.91H958a3.92,3.92,0,0,1,0,7.83H937.81A3.92,3.92,0,0,1,933.9,480.79Zm7.21,15.39V490.3h13.54v5.87A57.31,57.31,0,0,0,941.11,496.18Z"/><path class="cls-2" d="M985.89,587.4a2.8,2.8,0,1,0,0,5.59,2.85,2.85,0,0,0,2-.82,2.79,2.79,0,0,0,0-3.95A2.85,2.85,0,0,0,985.89,587.4Z"/><path class="cls-2" d="M947.92,508.85a43.38,43.38,0,1,0,43.38,43.38A43.43,43.43,0,0,0,947.92,508.85Zm0,81.17a37.79,37.79,0,1,1,37.79-37.79A37.83,37.83,0,0,1,947.92,590Z"/><path class="cls-2" d="M977.82,549.47h-2.59a2.8,2.8,0,1,0,0,5.59h2.59a2.8,2.8,0,1,0,0-5.59Z"/><path class="cls-2" d="M920.62,549.4H918a2.8,2.8,0,1,0,0,5.59h2.59a2.8,2.8,0,0,0,0-5.59Z"/><path class="cls-2" d="M948,527.72a2.79,2.79,0,0,0,2.79-2.8v-2.59a2.8,2.8,0,0,0-5.59,0v2.59A2.8,2.8,0,0,0,948,527.72Z"/><path class="cls-2" d="M947.89,576.74a2.8,2.8,0,0,0-2.8,2.8v2.59a2.8,2.8,0,1,0,5.6,0v-2.59A2.8,2.8,0,0,0,947.89,576.74Z"/><path class="cls-2" d="M864,566.69a2.8,2.8,0,1,0,2,.82A2.81,2.81,0,0,0,864,566.69Z"/><path class="cls-2" d="M941.15,544.09v-7.4h12.39v29.4h-8.25v-22Z"/><path class="cls-2" d="M218.49,546.61a56.46,56.46,0,0,0-43.89-49.49V490a9.51,9.51,0,0,0-2.3-18.74H152.17A9.51,9.51,0,0,0,149.88,490v7.12a56.19,56.19,0,0,0-27.54,15.15,57.07,57.07,0,0,0-4.75,5.39H97.45a2.8,2.8,0,0,0,0,5.59h16.34a56.18,56.18,0,0,0-5,10.75H78.39a2.8,2.8,0,1,0,0,5.59h28.85a56.61,56.61,0,0,0-1.38,10.75H93.49a2.8,2.8,0,1,0,0,5.59h12.45a57,57,0,0,0,1.75,10.75H89.58a2.8,2.8,0,1,0,0,5.59h19.9a56.47,56.47,0,0,0,47.22,36.16,53.94,53.94,0,0,0,5.54.28,56.55,56.55,0,0,0,30.82-9.12,2.79,2.79,0,1,0-3.05-4.68,50.9,50.9,0,1,1,15-15,2.8,2.8,0,1,0,4.69,3.05A56.73,56.73,0,0,0,218.49,546.61Zm-70.23-65.82a3.91,3.91,0,0,1,3.91-3.91H172.3a3.92,3.92,0,1,1,0,7.83H152.17A3.92,3.92,0,0,1,148.26,480.79Zm7.21,15.39V490.3H169v5.87A57.31,57.31,0,0,0,155.47,496.18Z"/><path class="cls-2" d="M200.25,587.4a2.8,2.8,0,1,0,2,.82A2.82,2.82,0,0,0,200.25,587.4Z"/><path class="cls-2" d="M162.28,508.85a43.38,43.38,0,1,0,43.38,43.38A43.43,43.43,0,0,0,162.28,508.85Zm0,81.17a37.79,37.79,0,1,1,37.79-37.79A37.83,37.83,0,0,1,162.28,590Z"/><path class="cls-2" d="M192.18,549.47h-2.59a2.8,2.8,0,1,0,0,5.59h2.59a2.8,2.8,0,0,0,0-5.59Z"/><path class="cls-2" d="M135,549.4h-2.59a2.8,2.8,0,0,0,0,5.59H135a2.8,2.8,0,1,0,0-5.59Z"/><path class="cls-2" d="M162.31,527.72a2.8,2.8,0,0,0,2.8-2.8v-2.59a2.8,2.8,0,0,0-5.59,0v2.59A2.79,2.79,0,0,0,162.31,527.72Z"/><path class="cls-2" d="M162.25,576.74a2.8,2.8,0,0,0-2.8,2.8v2.59a2.8,2.8,0,1,0,5.59,0v-2.59A2.79,2.79,0,0,0,162.25,576.74Z"/><path class="cls-2" d="M78.39,566.69a2.8,2.8,0,1,0,2,.82A2.82,2.82,0,0,0,78.39,566.69Z"/><path class="cls-2" d="M154.87,538.93c1.77-1.62,4.23-2.43,7.4-2.43a12,12,0,0,1,5.28,1.07,7.5,7.5,0,0,1,4.45,7,6.52,6.52,0,0,1-4.35,6.56v.16a6.81,6.81,0,0,1,4.87,6.91,8.47,8.47,0,0,1-1.17,4.47,7.89,7.89,0,0,1-3.38,3,11.73,11.73,0,0,1-5.26,1.09,12,12,0,0,1-7.94-2.43c-2-1.63-3-4.11-3-7.46h7.68a3.43,3.43,0,0,0,.68,2.49,2.88,2.88,0,0,0,2.3.88,2.35,2.35,0,0,0,1.82-.72,2.7,2.7,0,0,0,.67-1.93,2.6,2.6,0,0,0-1-2.25,5.48,5.48,0,0,0-3.19-.72h-1.41v-6.4h1.37a5.31,5.31,0,0,0,2.59-.5,2.22,2.22,0,0,0,1.07-2.19,2.6,2.6,0,0,0-.61-1.87,2.17,2.17,0,0,0-1.65-.63,1.89,1.89,0,0,0-1.7.83,4.13,4.13,0,0,0-.63,2h-7.68A9.5,9.5,0,0,1,154.87,538.93Z"/><path class="cls-2" d="M576.36,937.55c2.95-4.56,7.09-10.79,13.45-9.07,2.89.79,4.12-3.69,1.24-4.47-8.64-2.34-14.51,4.72-18.69,11.2C570.73,937.72,574.75,940.05,576.36,937.55Z"/><path class="cls-2" d="M621.58,967.51l.17-.19c5-6.22,8-12.08,9.21-17.91,2.75-13.61-5.07-28.53-18.18-34.7-9.77-4.59-21.75-4.16-31.86.73-3.22-6.69-8-11.78-13.89-14.42-5.68-2.55-12.65-3-20.7-1.46-13.89,2.74-32.19,15.81-37.55,32.14q-.24.76-.45,1.53c-1.24,0-2.5-.08-3.77-.08-33.17,0-58.9,16.58-58.9,30.83,0,13.19,19.82,19.87,58.9,19.87,4.29,0,8.33-.08,12.16-.24a12.78,12.78,0,0,0-.19,2c0,13.18,19.82,19.87,58.91,19.87s58.9-6.69,58.9-19.87C634.34,979.53,629.6,973,621.58,967.51Zm-43.86-42.83a30.73,30.73,0,0,1,2.68-1.88c.9-.57,1.81-1.11,2.76-1.59,8.55-4.31,18.74-4.78,27-.9,10.44,4.91,16.92,17.16,14.76,27.88-1,4.83-3.58,9.81-8,15.24-.24.3-.48.56-.72.85-10.49-5.6-24.76-9.47-40.78-9.47-1,0-1.91,0-2.85,0q-3.17.09-6.21.38c-.85.07-1.68.17-2.51.27,0-.1,0-.19,0-.28-.08-.68-.12-1.35-.14-2-.3-10.06,5.2-21.46,13.87-28.38Zm-63.06,8.94c4.66-14.2,20.69-25.58,32.87-28a39.19,39.19,0,0,1,7.56-.79,22.85,22.85,0,0,1,9.4,1.82c4.67,2.1,8.5,6.3,11.08,11.91-.64.45-1.27.91-1.88,1.4-9.6,7.65-15.85,20.13-16.18,31.59-8.08-8.54-23.74-15.91-42.86-17.88C514.65,933.66,514.66,933.64,514.66,933.62Zm4.62,43.65c-4.56.26-9.48.4-14.72.4-32.52,0-52.72-5.25-52.72-13.69,0-9.69,22.64-24.64,52.72-24.64.92,0,1.84,0,2.74,0,1.06,0,2.09.09,3.12.15s2.05.16,3.06.26c19.37,1.93,34.57,9.84,40.77,17.36a86.59,86.59,0,0,0-10.7,3.16,71.45,71.45,0,0,0-8.63,3.83c-1.66.88-3.24,1.8-4.71,2.76A36.53,36.53,0,0,0,519.28,977.27Zm56.16,22.05c-32.52,0-52.72-5.24-52.72-13.68a7.41,7.41,0,0,1,.43-2.39,12.62,12.62,0,0,1,1.7-3.26,23.32,23.32,0,0,1,3-3.41c4-3.78,10.1-7.51,17.76-10.37a80.94,80.94,0,0,1,11.58-3.33s0,0,0,0l.25-.1c.59-.12,1.19-.25,1.79-.36l1-.17,2.12-.34.93-.13c.76-.1,1.53-.2,2.31-.28a87.69,87.69,0,0,1,9.87-.55,83,83,0,0,1,36.3,8c1,.49,2,1,2.89,1.52s1.87,1.1,2.74,1.66c6.81,4.42,10.79,9.39,10.79,13.45C628.16,994.08,608,999.32,575.44,999.32Z"/><path class="cls-2" d="M545.93,908.72a31.94,31.94,0,0,0-18.68,15c-1.46,2.61,2.55,4.95,4,2.34a27.09,27.09,0,0,1,15.91-12.86C550,912.33,548.8,907.85,545.93,908.72Z"/><path class="cls-2" d="M475.09,947a21.41,21.41,0,0,0-15.17,8.49c-1.82,2.36,2.21,4.68,4,2.34a16.24,16.24,0,0,1,11.17-6.19C478,951.37,478.06,946.73,475.09,947Z"/><path class="cls-2" d="M544.13,970.53a19.6,19.6,0,0,0-8.32,3.39c-2.41,1.71-.1,5.74,2.34,4a16.49,16.49,0,0,1,7.22-2.91,2.34,2.34,0,0,0,1.62-2.85A2.39,2.39,0,0,0,544.13,970.53Z"/><path class="cls-2" d="M297.39,728.75c-15-8-33.75-12.42-52.84-12.42-1.83,0-3.65,0-5.47.13a121.25,121.25,0,0,0,7.73-9.83c9.25-13.28,10.95-23.52,5.06-30.45s-18.91-9-34.81-5.55c-16.6,3.61-33.75,12.41-48.29,24.78s-26,27.88-32.2,43.69c-6,15.14-6,28.32-.1,35.25,2.93,3.44,7,5.17,12.09,5.17s11.44-1.76,18.78-5.29c3-1.46,6.27-3.22,9.66-5.26,13.73,9.2,42.39,11.5,67.55,11.5,34.56,0,75.75-4.33,75.75-24.94C320.3,746.43,311.74,736.42,297.39,728.75Zm-122.6,34.3c-.9.55-1.79,1.09-2.66,1.6-2.62,1.53-5.12,2.88-7.47,4-8.07,3.87-18.69,7.31-23.48,1.68-4.33-5.09-3.89-16.19,1.15-29,5.86-14.88,16.67-29.53,30.45-41.25s30-20,45.59-23.44a62.1,62.1,0,0,1,13-1.52c7.29,0,12.94,1.72,15.76,5,4.78,5.63-.31,15.56-5.43,22.91a130.33,130.33,0,0,1-11.64,14.08q-1.67,1.77-3.45,3.59t-3.77,3.77c-4.92,4.8-10.46,9.82-16.55,15a276.34,276.34,0,0,1-28.87,21.82C176.55,762,175.67,762.51,174.79,763.05Zm69.76,11.23c-29.56,0-51-3.23-61.77-9a291,291,0,0,0,27.55-21A304.17,304.17,0,0,0,233,723.09c3.8-.37,7.65-.57,11.52-.57,18.09,0,35.82,4.15,49.92,11.68,12.12,6.48,19.65,14.65,19.65,21.33C314.12,767.27,288.11,774.28,244.55,774.28Z"/><path class="cls-2" d="M214.58,693.75c2.87.87,4.09-3.61,1.24-4.48a23.33,23.33,0,0,0-22.88,5.32c-2.2,2,1.09,5.31,3.28,3.28A18.55,18.55,0,0,1,214.58,693.75Z"/><path class="cls-2" d="M268.92,729.82c-3-.35-2.94,4.29,0,4.64a19,19,0,0,1,11.73,6.18c2,2.2,5.3-1.09,3.28-3.28A23.92,23.92,0,0,0,268.92,729.82Z"/><path class="cls-2" d="M947.74,781.2l-9.6-23.91a44.38,44.38,0,0,0,2.64-23.64l3.21-5.57a19,19,0,0,0,0-18.91l-27-46.81a18.94,18.94,0,0,0-16.38-9.46H846.53a18.94,18.94,0,0,0-16.38,9.46l-5.69,9.84a8.42,8.42,0,0,0-8.84,4.67l-3.11,6.48a8.42,8.42,0,0,0-13.79,2l-8.18,17s-3.7,7.79-4.44,11.55a44.31,44.31,0,0,0,1,24.17l-11.17,23.22a2.64,2.64,0,0,0,4.65,2.49,1.32,1.32,0,0,0,.12-.2l11.64-24.18a2.7,2.7,0,0,0,.11-2,39.65,39.65,0,0,1,1.66-30.18l9.41-19.55a3.12,3.12,0,0,1,5.62,2.7l-4.28,8.88a2.66,2.66,0,0,0,1.24,3.54,2.78,2.78,0,0,0,.6.19,2.65,2.65,0,0,0,2.94-1.43l10.53-21.9.65-1.13a3.12,3.12,0,0,1,3.76-.83,2.53,2.53,0,0,1,.22.13,3.12,3.12,0,0,1,1.24,4l0,.08-10.74,22.32a2.65,2.65,0,1,0,4.77,2.3l13.51-28.09a3.12,3.12,0,1,1,5.62,2.71l-13.51,28.08a2.65,2.65,0,1,0,4.77,2.3l10.78-22.41a3.12,3.12,0,0,1,5.62,2.71l-13,27.09,0,0L829,728.89a2.65,2.65,0,0,0,3.77,3.4l12.33-7.61a4.15,4.15,0,0,1,5.28,6.29l-.54.59A55.76,55.76,0,0,1,822,748.48c-1,.27-2.1.5-3.16.71l-1.06.21a2.62,2.62,0,0,0-1.73,1.14,2.14,2.14,0,0,0-.2.32L804.28,775a2.65,2.65,0,1,0,4.77,2.3l10.21-21.23,10.89,18.85a19,19,0,0,0,16.38,9.45h54.05a18.88,18.88,0,0,0,8-1.84l5,12.39a2.65,2.65,0,0,0,3.44,1.47l.18-.1a2.63,2.63,0,0,0,1.29-3.35l-5.38-13.4-1.23-3.06-1.29-3.21-2.07-5.17a2.68,2.68,0,0,0-1.83-1.59A55.79,55.79,0,0,1,876,746.57l-.49-.63a4.15,4.15,0,0,1,5.68-5.92l11.79,8.41a2.65,2.65,0,0,0,4-3.14l-4.09-10.18,0-.05-11.2-27.89c-1.48-3.71,4.25-6.18,5.79-2.33l9.27,23.07a2.65,2.65,0,1,0,4.91-2L890,697a3.45,3.45,0,0,1,1.73-4.06,3.13,3.13,0,0,1,4.06,1.73l11.61,28.93a2.65,2.65,0,1,0,4.91-2L903,698.57a3.12,3.12,0,1,1,5.79-2.32l9.26,23.07a2.65,2.65,0,0,0,4.92-2l-3.68-9.15a3.14,3.14,0,0,1,.26-2.82c1.18-1.88,4.7-1.57,5.53.49L933.2,726a38.75,38.75,0,0,1,1.72,5.42A39.82,39.82,0,0,1,936,742a39.36,39.36,0,0,1-3.13,14.28,2.65,2.65,0,0,0,0,2l10,24.91a2.65,2.65,0,0,0,4.92-2Zm-28.66-82a8.49,8.49,0,0,0-2.67,1.71l-2.68-6.67A8.42,8.42,0,0,0,900,691.41a8.42,8.42,0,0,0-15.38,6.18,8.3,8.3,0,0,0-3.26.61,8.42,8.42,0,0,0-4.67,10.94l11.94,29.73-4.44-3.16a9.44,9.44,0,0,0-12.94,13.47l.49.64a60.52,60.52,0,0,0,8.69,9s2.82,3.43,9.7,6.74a60.81,60.81,0,0,0,14,5.69l2.2,5.46a12.63,12.63,0,0,1-5.75,1.41H846.53a12.78,12.78,0,0,1-11-6.37l-10.73-18.59a61,61,0,0,0,9.64-3.6c7.08-2.84,10.13-6.07,10.13-6.07a60.28,60.28,0,0,0,9.26-8.46l.53-.6a9.44,9.44,0,0,0-12-14.3L837.69,723l13.88-28.88a8.42,8.42,0,0,0-3.93-11.23,8.66,8.66,0,0,0-3.21-.82,8.39,8.39,0,0,0-13.56-8.64l4.63-8a12.78,12.78,0,0,1,11-6.37h54.05a12.77,12.77,0,0,1,11,6.37l27,46.81a12.75,12.75,0,0,1,0,12.73l-.15.26c-.76-2.17-1.42-3.83-1.42-3.83l-7-17.52A8.42,8.42,0,0,0,919.08,699.23Z"/><path class="cls-2" d="M849.89,768.51a10.26,10.26,0,0,1-9.48-8.16c-.64-2.91-5.11-1.68-4.47,1.24a14.94,14.94,0,0,0,13.95,11.56C852.88,773.28,852.87,768.64,849.89,768.51Z"/><path class="cls-2" d="M894,663.73c-2.79-1.07-4,3.42-1.23,4.47a20.28,20.28,0,0,1,8.69,6.53c1.86,2.34,5.12-1,3.28-3.28A24.69,24.69,0,0,0,894,663.73Z"/></svg>