<svg id="Capa_1" data-name="Capa 1" xmlns="http://www.w3.org/2000/svg" viewBox="0 0 312.68 304.97"><defs><style>.cls-1{fill:#881919;}</style></defs><title>Iogo_hazpanencasa</title><path class="cls-1" d="M265.82,158.67c-23-12.32-51.9-19.1-81.25-19.1-2.81,0-5.61.08-8.41.21A187.47,187.47,0,0,0,188,124.66c14.23-20.42,16.85-36.17,7.79-46.83S166.75,64,142.3,69.3C116.77,74.85,90.4,88.38,68,107.4S28.1,150.27,18.53,174.58c-9.17,23.28-9.23,43.55-.16,54.21q6.76,7.94,18.59,7.94t28.88-8.12q7-3.37,14.85-8.1c21.13,14.15,65.2,17.68,103.88,17.68,53.15,0,116.49-6.65,116.49-38.34C301.06,185.85,287.89,170.46,265.82,158.67ZM77.31,211.41c-1.39.85-2.75,1.67-4.1,2.46-4,2.36-7.87,4.43-11.48,6.16-12.41,6-28.75,11.25-36.11,2.59-6.66-7.82-6-24.89,1.76-44.55,9-22.88,25.64-45.41,46.83-63.43s46.08-30.82,70.11-36a95.27,95.27,0,0,1,20-2.33c11.22,0,19.91,2.65,24.23,7.74,7.36,8.65-.47,23.93-8.34,35.22a199.72,199.72,0,0,1-17.91,21.65c-1.69,1.82-3.46,3.66-5.29,5.53s-3.8,3.83-5.81,5.79c-7.56,7.38-16.08,15.11-25.45,23.08A424.51,424.51,0,0,1,81.4,208.83C80,209.72,78.65,210.58,77.31,211.41Zm107.26,17.27c-45.45,0-78.45-5-95-13.8A446.22,446.22,0,0,0,132,182.52,469,469,0,0,0,166.86,150c5.85-.57,11.77-.88,17.71-.88,27.82,0,55.08,6.39,76.77,18,18.63,9.95,30.21,22.52,30.21,32.79C291.55,217.9,251.56,228.68,184.57,228.68Z"/><path class="cls-1" d="M138.49,104.84c4.4,1.35,6.29-5.54,1.9-6.88a35.85,35.85,0,0,0-35.18,8.18c-3.38,3.12,1.67,8.16,5,5A28.57,28.57,0,0,1,138.49,104.84Z"/><path class="cls-1" d="M222,160.32c-4.54-.55-4.51,6.59,0,7.13a29.14,29.14,0,0,1,18,9.49c3.12,3.39,8.15-1.67,5-5A36.72,36.72,0,0,0,222,160.32Z"/></svg>