<svg id="Capa_1" data-name="Capa 1" xmlns="http://www.w3.org/2000/svg" viewBox="0 0 1080 1080"><defs><style>.cls-1{fill:#fff;}.cls-2{fill:#881919;}</style></defs><title>Pasos_hazpanencasa</title><path class="cls-1" d="M1020.2,668.67a494.85,494.85,0,0,0-.06-257.32L540,540Z"/><path class="cls-1" d="M1020.14,411.35A494.82,494.82,0,0,0,891.53,188.47L540,540Z"/><path class="cls-1" d="M540,540,411.33,1020.2a494.85,494.85,0,0,0,257.32-.06L540,540Z"/><path class="cls-1" d="M540,540,59.86,668.65A494.82,494.82,0,0,0,188.47,891.53L540,540Z"/><path class="cls-1" d="M188.47,891.53A499.37,499.37,0,0,0,411.33,1020.2L540,540Z"/><path class="cls-1" d="M1020.2,668.67,540,540h0L891.53,891.53A499.37,499.37,0,0,0,1020.2,668.67Z"/><path class="cls-2" d="M540,540l128.65,480.14A494.82,494.82,0,0,0,891.53,891.53L540,540Z"/><path class="cls-1" d="M540,540,59.8,411.33a494.85,494.85,0,0,0,.06,257.32L540,540Z"/><path class="cls-1" d="M411.35,59.86A494.82,494.82,0,0,0,188.47,188.47L540,540Z"/><path class="cls-1" d="M668.67,59.8a494.85,494.85,0,0,0-257.32.06L540,540Z"/><path class="cls-1" d="M540,540,188.47,188.47A499.37,499.37,0,0,0,59.8,411.33L540,540Z"/><path class="cls-1" d="M540,540h0L891.53,188.47A499.37,499.37,0,0,0,668.67,59.8L540,540Z"/><path class="cls-2" d="M540,52.13A488,488,0,0,1,729.89,989.54,488,488,0,0,1,350.11,90.46,484.84,484.84,0,0,1,540,52.13m0-18.41C260.39,33.72,33.72,260.39,33.72,540S260.39,1046.28,540,1046.28,1046.28,819.61,1046.28,540,819.61,33.72,540,33.72Z"/><path class="cls-2" d="M547.21,174.46V98.31a2.37,2.37,0,0,0-.71-1.7,2,2,0,0,0-1.69-.7l-9.62,0a2.41,2.41,0,0,0-2.4,2.4v76.12a16.82,16.82,0,0,0,3.63,31.65,17.7,17.7,0,0,0,3.56.37,16.83,16.83,0,0,0,7.23-32Zm4.12,19.19a11.92,11.92,0,0,1-3.76,5.33h0A12,12,0,1,1,536,178.34a2.42,2.42,0,0,0,1.62-2.27V100.74l4.8,0v75.35a2.39,2.39,0,0,0,1.62,2.27A12,12,0,0,1,551.33,193.65Z"/><path class="cls-2" d="M566.33,172.81a31.2,31.2,0,0,0-9.5-9.5V148.79H564a2.41,2.41,0,0,0,0-4.81h-7.21v-4.8H564a2.41,2.41,0,0,0,0-4.81h-7.21v-4.81H564a2.41,2.41,0,0,0,0-4.81h-7.21V120H564a2.41,2.41,0,0,0,0-4.81h-7.21v-4.81H564a2.41,2.41,0,0,0,0-4.81h-7.21v-12a16.83,16.83,0,0,0-33.66,0v69.81a31.25,31.25,0,1,0,43.16,9.5ZM540,216.1a26.44,26.44,0,0,1-13.22-49.36,2.42,2.42,0,0,0,1.2-2.08V93.5a12,12,0,0,1,24,0v71.16a2.42,2.42,0,0,0,1.2,2.08A26.44,26.44,0,0,1,540,216.1Z"/><g id="outline"><path class="cls-2" d="M796.18,145.72H661.23A2.32,2.32,0,0,0,658.9,148a25.63,25.63,0,0,0,25.59,25.6h30.25V183h-4.65a2.32,2.32,0,0,0-2.33,2.32v11.64H697.48a11.64,11.64,0,0,0-11.57,10.35l-7.24,65.15A11.65,11.65,0,0,0,689,285.26c.43,0,.86.07,1.29.07h76.93a11.64,11.64,0,0,0,11.63-11.64,10.86,10.86,0,0,0-.07-1.28l-7.24-65.15a11.62,11.62,0,0,0-11.56-10.35H749.65V185.27a2.33,2.33,0,0,0-2.33-2.32h-4.66v-9.31h30.25a25.64,25.64,0,0,0,25.6-25.6A2.32,2.32,0,0,0,796.18,145.72Zm-36.25,55.84a7,7,0,0,1,6.93,6.21l7.24,65.15a7,7,0,0,1-1.73,5.43,6.92,6.92,0,0,1-5.2,2.32H690.24a7,7,0,0,1-6.94-7.75l7.24-65.15a7,7,0,0,1,6.94-6.21ZM745,187.6v9.31h-4.65v-4.66h-4.66v4.66H731v-4.66h-4.65v4.66h-4.66v-4.66h-4.65v4.66h-4.65V187.6ZM719.4,183v-9.31H738V183Zm53.51-14H684.49a21,21,0,0,1-20.81-18.61h130A21,21,0,0,1,772.91,169Z"/><path class="cls-2" d="M700.78,241.12a27.93,27.93,0,1,0,27.92-27.93A27.92,27.92,0,0,0,700.78,241.12Zm27.92-2.33a2.33,2.33,0,1,1-2.32,2.33A2.33,2.33,0,0,1,728.7,238.79ZM726.38,218v16.59a7,7,0,1,0,4.65,0V218a23.27,23.27,0,1,1-4.65,0Z"/><rect class="cls-2" x="677.51" y="159.68" width="27.92" height="4.65"/></g><g id="outline-2" data-name="outline"><path class="cls-2" d="M355.56,228.43a2.28,2.28,0,0,0-4.55,0,4.08,4.08,0,0,1-1.43,3.06,8.45,8.45,0,0,0,0,12.1,4,4,0,0,1,1.43,3,2.28,2.28,0,1,0,4.55,0,8.44,8.44,0,0,0-2.55-6,4,4,0,0,1,0-6.11A8.44,8.44,0,0,0,355.56,228.43Z"/><path class="cls-2" d="M369.22,228.43a2.28,2.28,0,0,0-4.55,0,4.08,4.08,0,0,1-1.43,3.06,8.43,8.43,0,0,0,0,12.1,4,4,0,0,1,1.43,3,2.28,2.28,0,1,0,4.55,0,8.44,8.44,0,0,0-2.56-6,4,4,0,0,1,0-6.11A8.44,8.44,0,0,0,369.22,228.43Z"/><path class="cls-2" d="M341.91,228.43a2.28,2.28,0,0,0-4.55,0,4.08,4.08,0,0,1-1.43,3.06,8.45,8.45,0,0,0,0,12.1,4,4,0,0,1,1.43,3,2.28,2.28,0,1,0,4.55,0,8.44,8.44,0,0,0-2.56-6,4,4,0,0,1,0-6.11A8.44,8.44,0,0,0,341.91,228.43Z"/><path class="cls-2" d="M403.64,185.2H299a2.27,2.27,0,0,0-2.28,2.27V269.4a2.28,2.28,0,0,0,2.28,2.27H403.64a2.27,2.27,0,0,0,2.27-2.27V187.47A2.27,2.27,0,0,0,403.64,185.2Zm-2.28,81.92H301.23V189.75H401.36Z"/><path class="cls-2" d="M407.05,148.78H295.54A12.52,12.52,0,0,0,283,161.3V272.81a12.52,12.52,0,0,0,12.51,12.52H407.05a12.54,12.54,0,0,0,12.52-12.52V161.3A12.54,12.54,0,0,0,407.05,148.78ZM287.58,161.3a8,8,0,0,1,8-8H407.05a8,8,0,0,1,8,8v10.24H287.58ZM407.05,280.78H295.54a8,8,0,0,1-8-8V176.09H415v96.72A8,8,0,0,1,407.05,280.78Z"/><path class="cls-2" d="M367.23,155.61H335.37a2.28,2.28,0,0,0-2.28,2.28V167a2.28,2.28,0,0,0,2.28,2.28h31.86A2.28,2.28,0,0,0,369.5,167v-9.1A2.28,2.28,0,0,0,367.23,155.61Zm-2.28,9.1H337.64v-4.55H365Z"/><path class="cls-2" d="M312.61,217.06H390a6.83,6.83,0,0,0,2.28-13.27v-7.22A2.28,2.28,0,0,0,390,194.3h-9.1a2.28,2.28,0,0,0-2.28,2.27v6.83H324v-6.83a2.28,2.28,0,0,0-2.28-2.27h-9.1a2.28,2.28,0,0,0-2.28,2.27v7.22a6.83,6.83,0,0,0,2.28,13.27Zm70.55-18.21h4.55v4.55h-4.55Zm-68.27,0h4.55v4.55h-4.55Zm-2.28,9.1H390a2.28,2.28,0,1,1,0,4.55H312.61a2.28,2.28,0,1,1,0-4.55Z"/><path class="cls-2" d="M321.71,155.61a6.83,6.83,0,1,0,6.83,6.83A6.82,6.82,0,0,0,321.71,155.61Zm0,9.1a2.28,2.28,0,1,1,2.28-2.27A2.27,2.27,0,0,1,321.71,164.71Z"/><path class="cls-2" d="M303.51,155.61a6.83,6.83,0,1,0,6.82,6.83A6.83,6.83,0,0,0,303.51,155.61Zm0,9.1a2.28,2.28,0,1,1,2.27-2.27A2.27,2.27,0,0,1,303.51,164.71Z"/><path class="cls-2" d="M399.09,155.61a6.83,6.83,0,1,0,6.82,6.83A6.83,6.83,0,0,0,399.09,155.61Zm0,9.1a2.28,2.28,0,1,1,2.27-2.27A2.27,2.27,0,0,1,399.09,164.71Z"/><path class="cls-2" d="M380.88,155.61a6.83,6.83,0,1,0,6.83,6.83A6.83,6.83,0,0,0,380.88,155.61Zm0,9.1a2.28,2.28,0,1,1,2.28-2.27A2.27,2.27,0,0,1,380.88,164.71Z"/><path class="cls-2" d="M371.78,258h-41a2.28,2.28,0,0,0,0,4.55h41a2.28,2.28,0,0,0,0-4.55Z"/><path class="cls-2" d="M383.16,258h-2.28a2.28,2.28,0,1,0,0,4.55h2.28a2.28,2.28,0,0,0,0-4.55Z"/></g><path class="cls-2" d="M394.62,888.85a56,56,0,0,0-43.54-49.1v-7a9.43,9.43,0,0,0-2.27-18.58h-20a9.43,9.43,0,0,0-2.27,18.58v7.07a55.72,55.72,0,0,0-27.32,15,57.49,57.49,0,0,0-4.71,5.34h-20a2.78,2.78,0,0,0,0,5.55h16.2a56.09,56.09,0,0,0-4.92,10.66H255.64a2.78,2.78,0,0,0,0,5.55h28.63a56.49,56.49,0,0,0-1.38,10.66H270.62a2.78,2.78,0,0,0,0,5.55H283a56,56,0,0,0,1.73,10.66h-18a2.78,2.78,0,1,0,0,5.55h19.74A55.57,55.57,0,0,0,299.24,934a56.13,56.13,0,0,0,34.08,16.14c1.83.18,3.67.27,5.5.27a56.15,56.15,0,0,0,30.58-9,2.78,2.78,0,0,0-3-4.65,50.47,50.47,0,1,1,14.87-14.88,2.77,2.77,0,0,0,4.65,3A56.16,56.16,0,0,0,394.62,888.85ZM325,823.55a3.88,3.88,0,0,1,3.88-3.88h20a3.89,3.89,0,0,1,0,7.77h-20A3.89,3.89,0,0,1,325,823.55Zm7.15,15.27V833h13.43v5.83A56.39,56.39,0,0,0,332.1,838.82Z"/><path class="cls-2" d="M376.52,929.31a2.78,2.78,0,1,0,2,.81A2.78,2.78,0,0,0,376.52,929.31Z"/><path class="cls-2" d="M338.86,851.39a43,43,0,1,0,43,43A43.07,43.07,0,0,0,338.86,851.39Zm0,80.51a37.48,37.48,0,1,1,37.49-37.48A37.52,37.52,0,0,1,338.86,931.9Z"/><path class="cls-2" d="M368.52,891.68H366a2.78,2.78,0,0,0,0,5.55h2.57a2.78,2.78,0,0,0,0-5.55Z"/><path class="cls-2" d="M311.77,891.61H309.2a2.78,2.78,0,0,0,0,5.55h2.57a2.78,2.78,0,1,0,0-5.55Z"/><path class="cls-2" d="M338.9,870.1a2.77,2.77,0,0,0,2.77-2.77v-2.57a2.78,2.78,0,0,0-5.55,0v2.57A2.77,2.77,0,0,0,338.9,870.1Z"/><path class="cls-2" d="M338.83,918.73a2.79,2.79,0,0,0-2.78,2.78v2.57a2.78,2.78,0,0,0,5.55,0v-2.57A2.78,2.78,0,0,0,338.83,918.73Z"/><path class="cls-2" d="M255.64,908.76a2.77,2.77,0,0,0-2.77,2.78,2.78,2.78,0,0,0,.81,2,2.78,2.78,0,0,0,3.92,0,2.78,2.78,0,0,0-2-4.74Z"/><path class="cls-2" d="M336,896.68a27.83,27.83,0,0,0,4.14-4.53,7.72,7.72,0,0,0,1.68-4.45,3.06,3.06,0,0,0-.58-2,2.23,2.23,0,0,0-3.49.26,5.13,5.13,0,0,0-.6,2.85h-7.58a11.77,11.77,0,0,1,1.56-5.88,8.76,8.76,0,0,1,3.75-3.43,11.74,11.74,0,0,1,5.15-1.1q4.9,0,7.29,2.43a8.58,8.58,0,0,1,2.4,6.3,12.62,12.62,0,0,1-2.77,7.78,30.37,30.37,0,0,1-6.92,6.5h10v6.35H329.67V901.9Q333.54,898.87,336,896.68Z"/><path class="cls-1" d="M685.83,875.05a20.13,20.13,0,0,0-13.56,16.83c-.37,2.93,4.24,2.9,4.61,0a15.33,15.33,0,0,1,10.17-12.4C689.83,878.52,688.64,874.08,685.83,875.05Z"/><path class="cls-1" d="M817.4,875.51l-.71-.8c-4.59-5.19-6.06-10-7.77-15.6a59.55,59.55,0,0,0-5.33-13.23c-5.59-9.7-17.43-13.57-33.33-10.9-18.85,3.18-42.51,15.73-54.9,29.65a20.31,20.31,0,0,0-5.55-3.76c-4.55-2-10.11-2.45-16.52-1.18C682,861.91,667.83,872,663.53,885.17c-2.69,8.18-.94,16,5.05,22.49,3.68,4,9.27,6.08,16.31,6.08a39.89,39.89,0,0,0,4.28-.24,51.24,51.24,0,0,0,8.36-1.64A21.12,21.12,0,0,0,709.29,926c6.16,3,11.69,4.45,16.74,4.45a23.76,23.76,0,0,0,6.46-.87c5.57-1.56,10.67-5.29,15.6-11.39l.66-.86a140.89,140.89,0,0,0,24.81,2.33c.77,0,1.5,0,2.21,0,13.07-.29,31.77-1.85,43.17-12C834,894.21,825.17,884.27,817.4,875.51ZM696.86,905.65a45.58,45.58,0,0,1-8.34,1.75c-7,.75-12.43-.64-15.42-3.89-4.46-4.86-5.72-10.39-3.74-16.43,3.44-10.5,15.76-19.53,25.11-21.37a29.61,29.61,0,0,1,5.77-.61,17.22,17.22,0,0,1,7,1.36,14.47,14.47,0,0,1,4.27,3,17.77,17.77,0,0,1,2.06,2.46,23,23,0,0,1,1.75,3c.23.49.46,1,.67,1.51-.64.29-1.27.61-1.89.94a31.52,31.52,0,0,0-4,2.57l-.47.35a32.88,32.88,0,0,0-3,2.7C700.77,889.16,697,897.72,696.86,905.65Zm52.53-2.95a23.3,23.3,0,0,1-3.35,7.81c-.56.88-1.19,1.78-1.88,2.7-.28.36-.55.72-.84,1.08-.44.55-.88,1.06-1.32,1.56-3.66,4.14-7.33,6.71-11.17,7.78-5.22,1.47-11.39.42-18.86-3.2-4.74-2.29-7.61-5.84-8.6-10.56-.11-.54-.22-1.08-.28-1.64s-.09-1-.1-1.54a22.22,22.22,0,0,1,.2-3.43,28.76,28.76,0,0,1,4.51-11.64,30.93,30.93,0,0,1,2.39-3.17,27.44,27.44,0,0,1,2.76-2.74c.23-.2.46-.4.7-.59a24.34,24.34,0,0,1,4.21-2.71,25.17,25.17,0,0,1,2.88-1.23,25.49,25.49,0,0,1,3-.86,22.79,22.79,0,0,1,14.67,1.38C746.13,885.4,751,894.63,749.39,902.7Zm65.47.31c-9.89,8.8-27.13,10.18-39.23,10.45a129.66,129.66,0,0,1-23.19-1.73,27.48,27.48,0,0,0,3-7.82c2.2-10.89-4-22.83-14.53-27.77a29.12,29.12,0,0,0-19-1.69,30.38,30.38,0,0,0-2.52-5c10.64-12.38,32.91-25.21,52-28.41a51.18,51.18,0,0,1,8.46-.76c7.3,0,14.67,2,18.54,8.66a53.74,53.74,0,0,1,4.77,12c1.75,5.74,3.57,11.68,9.05,17.88l.71.8C821.26,889.11,824.88,894.09,814.86,903Z"/><path class="cls-1" d="M713.67,888.58l-.37.37a20.73,20.73,0,0,0-4.26,6.13,20.47,20.47,0,0,0-1.68,6.07,20.64,20.64,0,0,0,.31,6.79A20.7,20.7,0,0,0,710,914c1.48,2.56,5.46.25,4-2.32a16.28,16.28,0,0,1-2.06-6.11,15.92,15.92,0,0,1,0-3.65,14.1,14.1,0,0,1,.31-1.93,15.85,15.85,0,0,1,1-2.91c.08-.18.17-.36.25-.53a16.21,16.21,0,0,1,1.82-2.88,18,18,0,0,1,1.67-1.84C719.08,889.8,715.82,886.55,713.67,888.58Z"/><path class="cls-1" d="M781.9,873c-6.65,2.85-12.95-7.34-18.14-10-3.81-2-7.78-2.34-11.42.13-2.44,1.66-.14,5.65,2.32,4,6.53-4.44,13.06,5.66,18,8.72,3.81,2.36,7.41,2.92,11.53,1.16C786.94,875.8,784.6,871.84,781.9,873Z"/><path class="cls-2" d="M286.23,352.33a2.61,2.61,0,1,0-3.38,4c5.65,4.79,8.63,10.14,8.64,15.49a12.55,12.55,0,0,1-3.93,9.28c-4.44,4.44-12.69,7.74-24.54,9.82-10.63,1.87-23.95,2.78-40.72,2.74-25.89,0-44.16-2.27-55.59-6.83q6.6-4.69,14.16-11.3a9.21,9.21,0,0,0,6.18,3.28,9.33,9.33,0,0,0,10.19-8.39,55.38,55.38,0,0,0,0-10.3c4.57-4.57,8.7-8.87,12.41-13a35.28,35.28,0,0,1,4.76,21.47A9.31,9.31,0,1,0,233,370.44a54.82,54.82,0,0,0-.73-15.62,53.88,53.88,0,0,0-5.59-15.5,137.64,137.64,0,0,1,14.63,1.21,37.48,37.48,0,0,1,8,17.86,36.21,36.21,0,0,1,0,10.24,9.31,9.31,0,1,0,18.42,2.67,54.49,54.49,0,0,0,0-15.62,53.9,53.9,0,0,0-2.19-9.15,80.71,80.71,0,0,1,7.39,3.27,2.61,2.61,0,0,0,2.37-4.65c-14.33-7.29-34.14-11.31-54.49-11.12q2.1-2.71,3.92-5.31C232.28,317.83,236,308.9,236,301.43a17.79,17.79,0,0,0-5.31-13c-7.38-7.35-19.86-8.51-35.14-3.26-14.67,5-30.38,15.42-44.24,29.25-20.09,20-32.57,43.55-32.57,61.38,0,7.4,2.25,13.55,6.51,17.8a17.73,17.73,0,0,0,13,5.28q8.15,0,18.85-5.92c1.46-.8,3-1.7,4.5-2.67,11.88,5.74,31.77,8.56,60.69,8.6,16.54,0,30.94-.94,41.63-2.82,13.11-2.31,22-6,27.32-11.27a17.83,17.83,0,0,0,5.47-13c0-6.92-3.64-13.65-10.48-19.45Zm-27.19-8a48.65,48.65,0,0,1,3.45,12.1,49.18,49.18,0,0,1,0,14.13,4.07,4.07,0,0,1-4.62,3.5,4.16,4.16,0,0,1-3.48-4.71,40.79,40.79,0,0,0,0-11.73,41.29,41.29,0,0,0-5.92-15.9A107.92,107.92,0,0,1,259,344.34Zm-67,25.55a4.07,4.07,0,0,1-7.28,2.14q3.64-3.31,7.51-7c0,1.63-.07,3.27-.23,4.9Zm35.06-14.08a49.84,49.84,0,0,1,.66,14.13,4.09,4.09,0,0,1-4.46,3.71,4.16,4.16,0,0,1-3.68-4.55,40.6,40.6,0,0,0-6.33-26.05c1.1-1.25,2.15-2.49,3.16-3.7,1.37-.05,2.74-.09,4.13-.1a49.26,49.26,0,0,1,6.52,16.56Zm-42.45-60.19a48.8,48.8,0,0,1,11,6.11,49.61,49.61,0,0,1,10,10,4.07,4.07,0,0,1-.48,5.48,4.17,4.17,0,0,1-6.11-.61,40.7,40.7,0,0,0-8.3-8.28,41.54,41.54,0,0,0-15.42-7.06,108.13,108.13,0,0,1,9.31-5.62Zm-51.15,50.25a48.44,48.44,0,0,1,21.84,15.19,4.07,4.07,0,0,1-.23,5.5,4.17,4.17,0,0,1-6.12-.34,41,41,0,0,0-8.67-7.9,40.39,40.39,0,0,0-10.61-5.07c1.12-2.43,2.38-4.9,3.79-7.38Zm21.06,42.49c-11.74,6.51-20.13,7-25.64,1.51-3.3-3.3-5-8-5-14.11a50.49,50.49,0,0,1,3.75-17.68A35,35,0,0,1,145,369.54a9.41,9.41,0,0,0,13.83.71,9.26,9.26,0,0,0,.57-12.51,54.69,54.69,0,0,0-11.56-10.53,53.63,53.63,0,0,0-11.57-5.89q3.21-5.08,7.12-10.12a38.43,38.43,0,0,1,19.34,6.22,35.27,35.27,0,0,1,7.56,6.9,9.31,9.31,0,1,0,14.4-11.8,55.84,55.84,0,0,0-6.82-6.93,2.61,2.61,0,0,0-3.38,4,49.5,49.5,0,0,1,6.18,6.27,4.08,4.08,0,0,1-.53,5.77,4.17,4.17,0,0,1-5.83-.61,40.75,40.75,0,0,0-8.66-7.9,42.55,42.55,0,0,0-18.29-6.76q3.1-3.63,6.53-7.13a50.65,50.65,0,0,1,11,4,2.61,2.61,0,1,0,2.34-4.66,55,55,0,0,0-9-3.55,137.84,137.84,0,0,1,11.21-9.49,37.54,37.54,0,0,1,18.26,7,36,36,0,0,1,7.25,7.23,9.41,9.41,0,0,0,13.78,1.34,9.25,9.25,0,0,0,1.13-12.47,53.9,53.9,0,0,0-19.08-15.95q3.27-1.45,6.5-2.57a49,49,0,0,1,15.63-3c6,0,10.81,1.67,14.14,5a12.55,12.55,0,0,1,3.77,9.34c0,6.27-3.5,14.45-10.4,24.29A132.19,132.19,0,0,1,208.14,341c-15.53,16.17-34.35,36.69-53.57,47.33Z"/><path class="cls-2" d="M930.06,324.86H904.39L934.23,295a8.49,8.49,0,0,0-12-12l-41.84,41.84H806a6.65,6.65,0,1,0,0,13.29h2.21v6.65a46.58,46.58,0,0,0,27.9,42.61,11.06,11.06,0,0,0-8,10.58v2.21H907.9V398A11.06,11.06,0,0,0,900,387.41a46.59,46.59,0,0,0,27.89-42.61v-6.65h2.21a6.65,6.65,0,1,0,0-13.29Zm-4.7-38.7a4.05,4.05,0,1,1,5.73,5.73l-33,33H886.66Zm-58.26,52-2.52,2.52a6.28,6.28,0,0,1-4.64,1.95,23.37,23.37,0,0,0-15,5.15,47.19,47.19,0,0,0-8-.75c-11.23,0-19.37,2.24-23.51,6.3a42,42,0,0,1-.87-8.52v-6.65Zm3.1,19.36c.23,4.89-2.07,10.25-6.16,14.34-6.85,6.85-16.61,8.24-21.75,3.11-2.41-2.42-3.46-5.95-3-10a20.58,20.58,0,0,1,6.07-11.79c4.09-4.08,9.47-6.41,14.34-6.16a10.74,10.74,0,0,0,8-3.24l5.66-5.66h11.46l-11.39,11.39A10.69,10.69,0,0,0,870.2,357.51Zm-35.27,6.94a19.28,19.28,0,0,0,0,4.68c-7.61-.21-13.58-1.59-17-4a41.71,41.71,0,0,1-2.83-6.32c1.46-4.51,9.9-7.4,21.92-7.4,1.24,0,2.52.07,3.83.2A24.55,24.55,0,0,0,834.93,364.45Zm61.89,26.89a6.65,6.65,0,0,1,6.27,4.43H832.94a6.65,6.65,0,0,1,6.27-4.43Zm-15.51-4.43H854.72a42,42,0,0,1-32.13-15,54.85,54.85,0,0,0,13.52,1.63,14.51,14.51,0,0,0,3,4.5,15.49,15.49,0,0,0,11.17,4.36A24.35,24.35,0,0,0,867.17,375a25.84,25.84,0,0,0,6.73-11.51c9-3.91,17.46-7.59,25.14-7.59a78.65,78.65,0,0,1,22,2.85A42.15,42.15,0,0,1,881.31,386.91Zm42.11-42.11a41.85,41.85,0,0,1-1.17,9.68,83.11,83.11,0,0,0-23.21-3c-7.84,0-15.92,3.21-24.42,6.88,0-.34,0-.69,0-1a6.29,6.29,0,0,1,2-4.64l14.51-14.52h32.33Zm6.64-11.08H806a2.22,2.22,0,1,1,0-4.43H930.06a2.22,2.22,0,1,1,0,4.43Z"/><path class="cls-2" d="M859.1,351.45c-3.55,0-7.49,1.83-10.56,4.9a16.37,16.37,0,0,0-4.81,9.2,7.36,7.36,0,0,0,1.7,6.27,6.74,6.74,0,0,0,4.91,1.79c3.55,0,7.49-1.83,10.56-4.9a16.37,16.37,0,0,0,4.81-9.2,7.36,7.36,0,0,0-1.7-6.27A6.74,6.74,0,0,0,859.1,351.45Zm2.22,7.51a12,12,0,0,1-3.55,6.62c-2.22,2.22-5.07,3.6-7.43,3.6a2.63,2.63,0,0,1-1.78-.49,3.4,3.4,0,0,1-.44-2.59,12,12,0,0,1,3.55-6.62c2.22-2.22,5.07-3.6,7.43-3.6a2.63,2.63,0,0,1,1.78.49A3.45,3.45,0,0,1,861.32,359Z"/><path class="cls-2" d="M1000.42,546.56a56,56,0,0,0-43.54-49.09v-7.05a9.43,9.43,0,0,0-2.27-18.59h-20a9.43,9.43,0,0,0-2.27,18.59v7.07a55.62,55.62,0,0,0-27.32,15,56.34,56.34,0,0,0-4.71,5.35h-20a2.77,2.77,0,0,0,0,5.54h16.21a55.61,55.61,0,0,0-4.93,10.67H861.44a2.77,2.77,0,0,0,0,5.54h28.63a56.49,56.49,0,0,0-1.38,10.67H876.42a2.77,2.77,0,0,0,0,5.54h12.36a56.13,56.13,0,0,0,1.73,10.67h-18a2.77,2.77,0,1,0,0,5.54h19.74a56,56,0,0,0,46.84,35.88c1.84.18,3.67.27,5.5.27a56.23,56.23,0,0,0,30.58-9,2.78,2.78,0,1,0-3-4.65A50.49,50.49,0,1,1,987,579.59a2.77,2.77,0,1,0,4.65,3A56.15,56.15,0,0,0,1000.42,546.56Zm-69.67-65.29a3.89,3.89,0,0,1,3.88-3.89h20a3.89,3.89,0,0,1,0,7.77h-20A3.88,3.88,0,0,1,930.75,481.27Zm7.15,15.26V490.7h13.43v5.82A56.39,56.39,0,0,0,937.9,496.53Z"/><path class="cls-2" d="M982.32,587a2.82,2.82,0,0,0-2,.81,2.78,2.78,0,1,0,2-.81Z"/><path class="cls-2" d="M944.66,509.1a43,43,0,1,0,43,43A43.08,43.08,0,0,0,944.66,509.1Zm0,80.52a37.49,37.49,0,1,1,37.49-37.49A37.53,37.53,0,0,1,944.66,589.62Z"/><path class="cls-2" d="M974.32,549.39h-2.57a2.78,2.78,0,0,0,0,5.55h2.57a2.78,2.78,0,0,0,0-5.55Z"/><path class="cls-2" d="M917.57,549.33H915a2.77,2.77,0,0,0,0,5.54h2.57a2.77,2.77,0,1,0,0-5.54Z"/><path class="cls-2" d="M944.7,527.82a2.77,2.77,0,0,0,2.77-2.78v-2.57a2.78,2.78,0,0,0-5.55,0V525A2.77,2.77,0,0,0,944.7,527.82Z"/><path class="cls-2" d="M944.63,576.45a2.78,2.78,0,0,0-2.78,2.77v2.57a2.78,2.78,0,1,0,5.55,0v-2.57A2.77,2.77,0,0,0,944.63,576.45Z"/><path class="cls-2" d="M861.44,566.48a2.77,2.77,0,0,0-2.77,2.77,2.82,2.82,0,0,0,.81,2,2.77,2.77,0,1,0,2-4.73Z"/><path class="cls-2" d="M937.94,544.06v-7.34h12.29v29.16h-8.18V544.06Z"/><path class="cls-2" d="M221.06,546.56a56,56,0,0,0-43.54-49.09v-7.05a9.43,9.43,0,0,0-2.28-18.59h-20A9.44,9.44,0,0,0,153,490.42v7.07a55.63,55.63,0,0,0-27.31,15,53.67,53.67,0,0,0-4.71,5.35H101a2.77,2.77,0,0,0,0,5.54h16.2a56.18,56.18,0,0,0-4.92,10.67H82.08a2.77,2.77,0,0,0,0,5.54H110.7a56.47,56.47,0,0,0-1.37,10.67H97.06a2.77,2.77,0,0,0,0,5.54h12.36a56.13,56.13,0,0,0,1.73,10.67h-18a2.77,2.77,0,1,0,0,5.54h19.74a56,56,0,0,0,46.84,35.88c1.83.18,3.67.27,5.5.27a56.23,56.23,0,0,0,30.58-9,2.78,2.78,0,0,0-3-4.65,50.49,50.49,0,1,1,14.87-14.89,2.77,2.77,0,1,0,4.65,3A56.21,56.21,0,0,0,221.06,546.56Zm-69.67-65.29a3.89,3.89,0,0,1,3.88-3.89h20a3.89,3.89,0,1,1,0,7.77h-20A3.88,3.88,0,0,1,151.39,481.27Zm7.15,15.26V490.7H172v5.82A56.39,56.39,0,0,0,158.54,496.53Z"/><path class="cls-2" d="M203,587a2.82,2.82,0,0,0-2,.81,2.78,2.78,0,1,0,3.92,0A2.82,2.82,0,0,0,203,587Z"/><path class="cls-2" d="M165.3,509.1a43,43,0,1,0,43,43A43.08,43.08,0,0,0,165.3,509.1Zm0,80.52a37.49,37.49,0,1,1,37.48-37.49A37.53,37.53,0,0,1,165.3,589.62Z"/><path class="cls-2" d="M195,549.39h-2.57a2.78,2.78,0,1,0,0,5.55H195a2.78,2.78,0,0,0,0-5.55Z"/><path class="cls-2" d="M138.21,549.33h-2.57a2.77,2.77,0,0,0,0,5.54h2.57a2.77,2.77,0,1,0,0-5.54Z"/><path class="cls-2" d="M165.33,527.82a2.77,2.77,0,0,0,2.78-2.78v-2.57a2.78,2.78,0,0,0-5.55,0V525A2.77,2.77,0,0,0,165.33,527.82Z"/><path class="cls-2" d="M165.27,576.45a2.77,2.77,0,0,0-2.78,2.77v2.57a2.78,2.78,0,1,0,5.55,0v-2.57A2.77,2.77,0,0,0,165.27,576.45Z"/><path class="cls-2" d="M82.08,566.48a2.77,2.77,0,1,0,2,.81A2.78,2.78,0,0,0,82.08,566.48Z"/><path class="cls-2" d="M158,538.94q2.63-2.41,7.34-2.41a11.83,11.83,0,0,1,5.24,1.06,7.45,7.45,0,0,1,4.41,7,6.61,6.61,0,0,1-1.32,4.32,6.5,6.5,0,0,1-3,2.18v.16a6.76,6.76,0,0,1,4.83,6.86,8.44,8.44,0,0,1-1.16,4.43,7.89,7.89,0,0,1-3.35,3,11.73,11.73,0,0,1-5.23,1.07c-3.32,0-5.95-.8-7.87-2.41s-2.94-4.07-3-7.4h7.62a3.45,3.45,0,0,0,.68,2.48,2.86,2.86,0,0,0,2.28.87,2.33,2.33,0,0,0,1.81-.72,2.69,2.69,0,0,0,.66-1.91,2.58,2.58,0,0,0-1-2.23,5.43,5.43,0,0,0-3.17-.72h-1.4v-6.34h1.36a5.35,5.35,0,0,0,2.57-.5,2.21,2.21,0,0,0,1.06-2.18,2.56,2.56,0,0,0-.6-1.85,2.17,2.17,0,0,0-1.63-.62,1.87,1.87,0,0,0-1.7.82,4.11,4.11,0,0,0-.62,2h-7.62A9.4,9.4,0,0,1,158,538.94Z"/><path class="cls-2" d="M576.07,934.37c2.93-4.53,7-10.7,13.35-9,2.86.77,4.08-3.67,1.22-4.44-8.57-2.32-14.39,4.69-18.54,11.11C570.49,934.54,574.47,936.85,576.07,934.37Z"/><path class="cls-2" d="M620.93,964.1l.17-.2c5-6.17,8-12,9.13-17.76,2.73-13.5-5-28.3-18-34.42-9.68-4.56-21.57-4.13-31.6.72-3.19-6.64-8-11.68-13.78-14.3-5.63-2.54-12.54-3-20.53-1.45-13.78,2.72-31.94,15.68-37.25,31.87q-.24.77-.45,1.53c-1.23-.05-2.47-.08-3.73-.08-32.91,0-58.44,16.44-58.44,30.58,0,13.08,19.66,19.71,58.44,19.71q6.38,0,12-.24a12.61,12.61,0,0,0-.18,2c0,13.09,19.66,19.72,58.43,19.72s58.44-6.63,58.44-19.72C633.59,976,628.89,969.53,620.93,964.1Zm-43.51-42.5a30.06,30.06,0,0,1,2.65-1.86c.9-.57,1.8-1.1,2.74-1.58,8.48-4.28,18.6-4.74,26.77-.89,10.36,4.87,16.79,17,14.64,27.65-1,4.8-3.55,9.74-7.9,15.12-.24.3-.48.56-.71.85-10.41-5.56-24.57-9.4-40.46-9.4-.95,0-1.89,0-2.82,0-2.09.06-4.15.18-6.16.37-.84.07-1.67.17-2.49.26a2.56,2.56,0,0,1,0-.27c-.08-.67-.12-1.34-.14-2-.3-10,5.16-21.29,13.76-28.15A1.09,1.09,0,0,1,577.42,921.6Zm-62.55,8.88c4.61-14.09,20.52-25.39,32.6-27.77a38.61,38.61,0,0,1,7.5-.79,22.66,22.66,0,0,1,9.32,1.81c4.63,2.08,8.44,6.25,11,11.82-.64.44-1.26.89-1.87,1.38-9.52,7.6-15.73,20-16,31.34-8-8.47-23.55-15.78-42.52-17.74A.08.08,0,0,1,514.87,930.48Zm4.58,43.29c-4.53.26-9.41.4-14.6.4-32.26,0-52.3-5.2-52.3-13.58,0-9.61,22.45-24.44,52.3-24.44.91,0,1.82,0,2.72,0s2.07.08,3.09.15,2,.15,3,.25c19.22,1.92,34.29,9.77,40.44,17.22A83.47,83.47,0,0,0,543.52,957a70.29,70.29,0,0,0-8.56,3.8c-1.65.87-3.21,1.79-4.67,2.74A36.16,36.16,0,0,0,519.45,973.77Zm55.7,21.88c-32.25,0-52.29-5.2-52.29-13.58a7.6,7.6,0,0,1,.42-2.37,13.06,13.06,0,0,1,1.69-3.23,23,23,0,0,1,3-3.38c3.95-3.75,10-7.45,17.62-10.28A78.64,78.64,0,0,1,557,959.5a.07.07,0,0,1,0,0l.25-.1,1.77-.35,1-.17c.69-.12,1.4-.24,2.11-.34l.92-.13c.75-.1,1.52-.2,2.29-.28a88.59,88.59,0,0,1,9.78-.55,82.4,82.4,0,0,1,36,8c1,.49,2,1,2.86,1.51s1.86,1.09,2.72,1.65c6.76,4.38,10.7,9.31,10.7,13.33C627.45,990.45,607.41,995.65,575.15,995.65Z"/><path class="cls-2" d="M545.89,905.77a31.7,31.7,0,0,0-18.54,14.88c-1.45,2.59,2.53,4.91,4,2.33a26.89,26.89,0,0,1,15.78-12.77C549.94,909.35,548.73,904.91,545.89,905.77Z"/><path class="cls-2" d="M475.6,943.79a21.23,21.23,0,0,0-15,8.42c-1.81,2.34,2.19,4.64,4,2.32a16.15,16.15,0,0,1,11.07-6.14C478.52,948.09,478.55,943.48,475.6,943.79Z"/><path class="cls-2" d="M544.1,967.09a19.44,19.44,0,0,0-8.26,3.36c-2.39,1.7-.1,5.69,2.33,4a16.36,16.36,0,0,1,7.15-2.89,2.31,2.31,0,0,0,1.61-2.83A2.36,2.36,0,0,0,544.1,967.09Z"/><path class="cls-2" d="M299.33,727.24c-14.87-7.94-33.48-12.32-52.42-12.32-1.81,0-3.62.05-5.43.13a117.21,117.21,0,0,0,7.67-9.75c9.18-13.17,10.87-23.33,5-30.21s-18.75-8.93-34.53-5.5c-16.47,3.58-33.48,12.31-47.9,24.57S146,721.83,139.8,737.51c-5.92,15-6,28.09-.11,35,2.91,3.41,6.92,5.12,12,5.12s11.36-1.75,18.64-5.24q4.53-2.18,9.58-5.22c13.63,9.12,42.06,11.4,67,11.4,34.28,0,75.15-4.29,75.15-24.73C322.06,744.78,313.56,734.85,299.33,727.24Zm-121.62,34c-.89.55-1.77,1.07-2.64,1.58-2.6,1.52-5.08,2.86-7.41,4-8,3.84-18.54,7.25-23.29,1.67-4.29-5-3.86-16.06,1.14-28.74,5.81-14.76,16.54-29.29,30.2-40.92S205.44,679,221,675.58a61.52,61.52,0,0,1,12.91-1.5c7.24,0,12.85,1.71,15.64,5,4.75,5.58-.31,15.44-5.39,22.72a127.37,127.37,0,0,1-11.55,14q-1.63,1.75-3.41,3.56c-1.21,1.23-2.45,2.48-3.75,3.74C220.52,727.82,215,732.81,209,738a273.76,273.76,0,0,1-28.64,21.65C179.46,760.18,178.58,760.73,177.71,761.27Zm69.2,11.14c-29.32,0-50.61-3.21-61.28-8.9A287.56,287.56,0,0,0,213,742.63a305.75,305.75,0,0,0,22.53-21c3.77-.37,7.59-.57,11.42-.57,18,0,35.53,4.12,49.52,11.59,12,6.43,19.49,14.53,19.49,21.16C315.92,765.45,290.12,772.41,246.91,772.41Z"/><path class="cls-2" d="M217.19,692.52c2.83.86,4.05-3.58,1.22-4.44a23.16,23.16,0,0,0-22.7,5.27c-2.18,2,1.08,5.27,3.26,3.26A18.39,18.39,0,0,1,217.19,692.52Z"/><path class="cls-2" d="M271.08,728.31c-2.93-.36-2.9,4.25,0,4.6A18.8,18.8,0,0,1,282.72,739c2,2.18,5.26-1.08,3.26-3.25A23.69,23.69,0,0,0,271.08,728.31Z"/><path class="cls-2" d="M944.48,779.27,935,755.56a44.09,44.09,0,0,0,2.61-23.45l3.19-5.53a18.83,18.83,0,0,0,0-18.77L914,661.38A18.82,18.82,0,0,0,897.7,652H844.08a18.82,18.82,0,0,0-16.25,9.39l-5.64,9.76a8.37,8.37,0,0,0-8.77,4.63l-3.09,6.43a8.53,8.53,0,0,0-2.53-1.88,8.36,8.36,0,0,0-11.14,3.91l-8.12,16.87s-3.68,7.73-4.41,11.46a44.1,44.1,0,0,0,1,24l-11.08,23a2.62,2.62,0,0,0,4.61,2.48c0-.07.09-.13.13-.21l11.54-24a2.64,2.64,0,0,0,.11-2,39.32,39.32,0,0,1,1.65-29.94l9.33-19.4a3.1,3.1,0,0,1,5.58,2.69L802.73,698a2.63,2.63,0,0,0,1.22,3.51,2.78,2.78,0,0,0,.6.19,2.63,2.63,0,0,0,2.91-1.42l10.45-21.73.65-1.12a3.1,3.1,0,0,1,3.72-.83c.08,0,.15.1.22.14a3.09,3.09,0,0,1,1.23,4l0,.09L813,703a2.63,2.63,0,1,0,4.73,2.28l13.4-27.86a3.1,3.1,0,0,1,5.58,2.68l-13.4,27.86a2.63,2.63,0,1,0,4.73,2.28L838.77,688a3.1,3.1,0,1,1,5.58,2.69l-12.93,26.87,0,0-4.72,9.81a2.63,2.63,0,0,0,3.75,3.37l12.23-7.54a4.11,4.11,0,0,1,5.23,6.23l-.52.59a55.46,55.46,0,0,1-27.58,16.79c-1,.26-2.09.49-3.14.7l-1,.2a2.64,2.64,0,0,0-1.72,1.14,2,2,0,0,0-.2.31L802.17,773.1a2.63,2.63,0,0,0,.17,2.58,2.79,2.79,0,0,0,1,.93,2.63,2.63,0,0,0,3.51-1.23L817,754.32l10.8,18.7a18.83,18.83,0,0,0,16.25,9.38H897.7a18.79,18.79,0,0,0,8-1.83l4.93,12.29a2.63,2.63,0,0,0,3.42,1.46l.18-.1a2.63,2.63,0,0,0,1.28-3.32l-5.34-13.29-1.22-3-1.28-3.18-2.06-5.13a2.63,2.63,0,0,0-1.82-1.58,55.35,55.35,0,0,1-30.52-19.76l-.49-.63a4.11,4.11,0,0,1,5.64-5.87l11.7,8.34a2.62,2.62,0,0,0,4-3.12L890,733.55l0,0-11.11-27.67c-1.47-3.67,4.21-6.13,5.74-2.31l9.19,22.89a2.63,2.63,0,0,0,4.88-2l-11.52-28.69a3.42,3.42,0,0,1,1.72-4,3.08,3.08,0,0,1,4,1.72l11.52,28.69a2.63,2.63,0,0,0,4.88-2l-9.19-22.89a3.09,3.09,0,1,1,5.74-2.3l9.19,22.88a2.62,2.62,0,0,0,4.87-2l-3.64-9.08a3.08,3.08,0,0,1,.26-2.79c1.17-1.87,4.66-1.56,5.48.49l8,20a37.78,37.78,0,0,1,1.71,5.38,39.55,39.55,0,0,1-2,24.6,2.62,2.62,0,0,0,0,2l9.92,24.7a2.7,2.7,0,0,0,1,1.25,2.63,2.63,0,0,0,3.83-3.2ZM916.05,698a8.51,8.51,0,0,0-2.65,1.71L910.74,693a8.36,8.36,0,0,0-10.85-4.64,8.52,8.52,0,0,0-2.75,1.8,8.35,8.35,0,0,0-15.26,6.13A8.34,8.34,0,0,0,874,707.79l11.84,29.49-4.4-3.14a9.37,9.37,0,0,0-12.84,13.37l.49.63a60,60,0,0,0,8.61,9s2.8,3.4,9.63,6.68a60.5,60.5,0,0,0,13.87,5.65l2.18,5.42a12.56,12.56,0,0,1-5.7,1.39H844.08A12.67,12.67,0,0,1,833.14,770l-10.65-18.44a60.64,60.64,0,0,0,9.56-3.57c7-2.82,10.05-6,10.05-6a59.83,59.83,0,0,0,9.19-8.39l.53-.59a9.36,9.36,0,0,0-11.91-14.19l-4.6,2.83,13.77-28.64A8.34,8.34,0,0,0,842,681a8.33,8.33,0,0,0-13.45-8.58l4.59-7.95a12.66,12.66,0,0,1,10.94-6.32H897.7a12.66,12.66,0,0,1,10.94,6.32l26.81,46.43a12.66,12.66,0,0,1,0,12.63l-.15.26c-.76-2.15-1.42-3.8-1.42-3.8l-7-17.38A8.37,8.37,0,0,0,916.05,698Z"/><path class="cls-2" d="M847.41,766.68a10.16,10.16,0,0,1-9.4-8.09c-.63-2.89-5.07-1.67-4.44,1.23a14.82,14.82,0,0,0,13.84,11.47C850.37,771.42,850.37,766.81,847.41,766.68Z"/><path class="cls-2" d="M891.12,662.74c-2.77-1.06-4,3.39-1.22,4.44a20.14,20.14,0,0,1,8.62,6.47c1.84,2.32,5.08-1,3.26-3.25A24.46,24.46,0,0,0,891.12,662.74Z"/></svg>