<svg id="Capa_1" data-name="Capa 1" xmlns="http://www.w3.org/2000/svg" viewBox="0 0 312.68 304.97"><defs><style>.cls-1{fill:#881919;}</style></defs><title>Iogo_hazpanencasa</title><path class="cls-1" d="M284.87,164.4a101.74,101.74,0,0,0-79.11-89.2V62.39a17.13,17.13,0,0,0-4.13-33.76H165.34a17.13,17.13,0,0,0-4.14,33.76V75.23a101.25,101.25,0,0,0-49.64,27.31,102.42,102.42,0,0,0-8.55,9.71l-.39,0H66.71a5,5,0,1,0,0,10.08H96.15a101.21,101.21,0,0,0-9,19.37H32.35a5,5,0,0,0,0,10.08h52a102.36,102.36,0,0,0-2.51,19.38H59.57a5,5,0,1,0,0,10.08H82a102.14,102.14,0,0,0,3.14,19.37H52.51a5,5,0,0,0,0,10.08H88.38a101.76,101.76,0,0,0,85.11,65.18q5,.5,10,.49a102.08,102.08,0,0,0,55.57-16.42,5,5,0,0,0-5.51-8.45,91.72,91.72,0,1,1,27-27.05,5,5,0,0,0,8.46,5.49A102.2,102.2,0,0,0,284.87,164.4ZM158.28,45.76a7.06,7.06,0,0,1,7.06-7h36.29a7.06,7.06,0,0,1,0,14.11H165.34A7.07,7.07,0,0,1,158.28,45.76Zm13,27.74V62.9h24.4V73.48A103.19,103.19,0,0,0,171.28,73.5Z"/><path class="cls-1" d="M252,237.92a5.05,5.05,0,1,0,3.56,1.48A5,5,0,0,0,252,237.92Z"/><path class="cls-1" d="M183.56,96.34a78.19,78.19,0,1,0,78.19,78.19A78.28,78.28,0,0,0,183.56,96.34Zm0,146.3a68.11,68.11,0,1,1,68.11-68.11A68.18,68.18,0,0,1,183.56,242.64Z"/><path class="cls-1" d="M237.45,169.55h-4.67a5,5,0,0,0,0,10.08h4.67a5,5,0,1,0,0-10.08Z"/><path class="cls-1" d="M134.34,169.43h-4.67a5,5,0,0,0,0,10.08h4.67a5,5,0,0,0,0-10.08Z"/><path class="cls-1" d="M183.62,130.35a5,5,0,0,0,5-5v-4.67a5,5,0,1,0-10.08,0v4.67A5,5,0,0,0,183.62,130.35Z"/><path class="cls-1" d="M183.5,218.71a5,5,0,0,0-5,5v4.67a5,5,0,0,0,10.08,0v-4.67A5,5,0,0,0,183.5,218.71Z"/><path class="cls-1" d="M32.35,200.59a5.05,5.05,0,1,0,3.56,1.48A5.08,5.08,0,0,0,32.35,200.59Z"/><path class="cls-1" d="M171.35,159.86V146.52h22.33v53H178.82V159.86Z"/></svg>