<svg id="Capa_1" data-name="Capa 1" xmlns="http://www.w3.org/2000/svg" viewBox="0 0 312.68 304.97"><defs><style>.cls-1{fill:#881919;}</style></defs><title>Iogo_hazpanencasa</title><path class="cls-1" d="M211.35,130.5c4.46-6.91,10.72-16.33,20.35-13.72,4.37,1.19,6.23-5.58,1.87-6.77-13.08-3.54-21.95,7.15-28.28,16.95C202.84,130.76,208.91,134.29,211.35,130.5Z"/><path class="cls-1" d="M279.76,175.83l.26-.3c7.59-9.41,12.15-18.27,13.93-27.08,4.16-20.6-7.66-43.17-27.51-52.5-14.77-7-32.89-6.3-48.2,1.1-4.86-10.13-12.13-17.82-21-21.81-8.59-3.87-19.13-4.61-31.31-2.21-21,4.15-48.71,23.91-56.81,48.61-.25.78-.47,1.55-.68,2.33-1.89-.07-3.79-.12-5.71-.12-50.19,0-89.12,25.07-89.12,46.64,0,19.95,30,30.06,89.12,30.06q9.73,0,18.39-.37a18.94,18.94,0,0,0-.28,3.07c0,19.95,30,30.07,89.12,30.07s89.12-10.12,89.12-30.07C299.07,194,291.9,184.12,279.76,175.83ZM213.4,111c1.31-1,2.67-2,4-2.84s2.75-1.68,4.18-2.4c12.93-6.53,28.36-7.23,40.83-1.37,15.79,7.44,25.6,26,22.32,42.18-1.48,7.31-5.42,14.85-12,23.06-.37.45-.73.85-1.09,1.29-15.87-8.47-37.46-14.33-61.7-14.33-1.45,0-2.88,0-4.31.07q-4.78.13-9.4.56c-1.27.12-2.54.26-3.79.41,0-.14-.06-.28-.08-.42-.11-1-.18-2-.21-3.08-.45-15.22,7.87-32.47,21-42.94A2.48,2.48,0,0,0,213.4,111ZM118,124.56c7-21.49,31.3-38.71,49.73-42.35A59.52,59.52,0,0,1,179.16,81a34.44,34.44,0,0,1,14.23,2.76c7.06,3.18,12.86,9.53,16.76,18-1,.67-1.92,1.37-2.84,2.11-14.53,11.58-24,30.46-24.48,47.79-12.23-12.91-35.92-24.06-64.85-27C118,124.62,118,124.59,118,124.56Zm7,66q-10.36.58-22.27.6c-49.19,0-79.76-7.93-79.76-20.7,0-14.67,34.25-37.28,79.76-37.28,1.4,0,2.78,0,4.15.06,1.59,0,3.16.13,4.72.23s3.1.23,4.63.39c29.31,2.92,52.3,14.89,61.67,26.26a129.57,129.57,0,0,0-16.19,4.79,109.63,109.63,0,0,0-13,5.78c-2.53,1.34-4.91,2.73-7.14,4.19C134.18,179.7,128.52,185.08,125,190.59ZM210,224c-49.2,0-79.76-7.94-79.76-20.71a11.43,11.43,0,0,1,.66-3.62,19.1,19.1,0,0,1,2.57-4.92,34.7,34.7,0,0,1,4.52-5.16c6-5.72,15.28-11.36,26.87-15.68a121.18,121.18,0,0,1,17.52-5.05s0,.05,0,.07.26-.1.38-.15l2.71-.53,1.48-.26c1.06-.18,2.13-.36,3.22-.52l1.4-.19c1.15-.16,2.32-.31,3.49-.44A136.48,136.48,0,0,1,210,166c21.71,0,40.84,5.15,54.93,12.12q2.26,1.13,4.37,2.31c1.45.82,2.82,1.66,4.14,2.51,10.31,6.68,16.32,14.21,16.32,20.34C289.71,216,259.15,224,210,224Z"/><path class="cls-1" d="M165.32,86.89a48.28,48.28,0,0,0-28.27,22.69c-2.21,3.94,3.85,7.49,6.06,3.54a41,41,0,0,1,24.07-19.46C171.49,92.34,169.65,85.56,165.32,86.89Z"/><path class="cls-1" d="M58.13,144.86a32.43,32.43,0,0,0-23,12.84c-2.75,3.58,3.34,7.07,6.06,3.54a24.58,24.58,0,0,1,16.89-9.36C62.58,151.42,62.62,144.39,58.13,144.86Z"/><path class="cls-1" d="M162.59,180.4A29.53,29.53,0,0,0,150,185.52c-3.65,2.59-.15,8.68,3.54,6.06a25,25,0,0,1,10.92-4.41c1.87-.29,2.92-2.64,2.45-4.32C166.35,180.85,164.48,180.11,162.59,180.4Z"/></svg>