<svg id="Capa_1" data-name="Capa 1" xmlns="http://www.w3.org/2000/svg" viewBox="0 0 312.68 304.97"><defs><style>.cls-1{fill:#881919;}</style></defs><title>Iogo_hazpanencasa</title><g id="outline"><path class="cls-1" d="M269.41,35.51H43.27a3.9,3.9,0,0,0-3.9,3.9A42.93,42.93,0,0,0,82.26,82.3h50.68V97.9h-7.79a3.89,3.89,0,0,0-3.9,3.9v19.49H104a19.5,19.5,0,0,0-19.38,17.34L72.5,247.81a19.51,19.51,0,0,0,17.23,21.53,19.23,19.23,0,0,0,2.15.12H220.79a19.5,19.5,0,0,0,19.5-19.5,19.23,19.23,0,0,0-.12-2.15L228,138.63a19.5,19.5,0,0,0-19.38-17.34H191.43V101.8a3.9,3.9,0,0,0-3.9-3.9h-7.8V82.3h50.69a42.94,42.94,0,0,0,42.89-42.89A3.91,3.91,0,0,0,269.41,35.51Zm-60.75,93.58a11.69,11.69,0,0,1,11.62,10.4l12.14,109.18a11.76,11.76,0,0,1-2.91,9.09,11.62,11.62,0,0,1-8.72,3.9H91.88a11.7,11.7,0,0,1-11.62-13L92.39,139.49A11.7,11.7,0,0,1,104,129.09Zm-25-23.39v15.59h-7.8v-7.8H168v7.8h-7.79v-7.8h-7.8v7.8h-7.8v-7.8h-7.8v7.8H129V105.7Zm-42.89-7.8V82.3h31.19V97.9Zm89.68-23.4H82.26A35.14,35.14,0,0,1,47.38,43.31H265.29A35.13,35.13,0,0,1,230.42,74.5Z"/><path class="cls-1" d="M109.55,195.37a46.79,46.79,0,1,0,46.79-46.79A46.79,46.79,0,0,0,109.55,195.37Zm46.79-3.9a3.9,3.9,0,1,1-3.9,3.9A3.91,3.91,0,0,1,156.34,191.47Zm-3.9-34.89v27.81a11.7,11.7,0,1,0,7.8,0V156.58a39,39,0,1,1-7.8,0Z"/><rect class="cls-1" x="70.56" y="58.91" width="46.79" height="7.8"/></g></svg>