<svg id="Capa_1" data-name="Capa 1" xmlns="http://www.w3.org/2000/svg" viewBox="0 0 312.68 304.97"><defs><style>.cls-1{fill:#881919;}</style></defs><title>Iogo_hazpanencasa</title><path class="cls-1" d="M284.53,164.37a101.44,101.44,0,0,0-78.9-89V62.63A17.09,17.09,0,0,0,201.5,29H165.31a17.09,17.09,0,0,0-4.12,33.67V75.44a101,101,0,0,0-49.51,27.23,102,102,0,0,0-8.53,9.69l-.38,0H67a5,5,0,1,0,0,10H96.31a100.38,100.38,0,0,0-8.92,19.32H32.68a5,5,0,1,0,0,10.06H84.55a102.54,102.54,0,0,0-2.5,19.32H59.83a5,5,0,1,0,0,10H82.21a102.3,102.3,0,0,0,3.14,19.32H52.79a5,5,0,1,0,0,10.06H88.56a101.53,101.53,0,0,0,84.89,65q5,.5,10,.49a101.76,101.76,0,0,0,55.41-16.38,5,5,0,0,0-5.48-8.42,91.5,91.5,0,1,1,26.94-27,5,5,0,1,0,8.43,5.47A101.88,101.88,0,0,0,284.53,164.37ZM158.27,46.05a7.05,7.05,0,0,1,7-7H201.5a7,7,0,0,1,0,14.08H165.31A7.05,7.05,0,0,1,158.27,46.05Zm13,27.66V63.14h24.34V73.7A102.16,102.16,0,0,0,171.24,73.71Z"/><path class="cls-1" d="M251.73,237.69a5,5,0,1,0,3.56,1.47A5.07,5.07,0,0,0,251.73,237.69Z"/><path class="cls-1" d="M183.48,96.49a78,78,0,1,0,78,78A78.07,78.07,0,0,0,183.48,96.49Zm0,145.91a67.93,67.93,0,1,1,67.93-67.93A68,68,0,0,1,183.48,242.4Z"/><path class="cls-1" d="M237.23,169.51h-4.66a5,5,0,0,0,0,10.05h4.66a5,5,0,1,0,0-10.05Z"/><path class="cls-1" d="M134.4,169.38h-4.66a5,5,0,0,0,0,10.06h4.66a5,5,0,0,0,0-10.06Z"/><path class="cls-1" d="M183.55,130.41a5,5,0,0,0,5-5v-4.65a5,5,0,1,0-10,0v4.65A5,5,0,0,0,183.55,130.41Z"/><path class="cls-1" d="M183.42,218.53a5,5,0,0,0-5,5v4.66a5,5,0,0,0,10,0v-4.66A5,5,0,0,0,183.42,218.53Z"/><path class="cls-1" d="M32.68,200.46a5,5,0,0,0-5,5,5,5,0,0,0,10.06,0,5,5,0,0,0-5-5Z"/><path class="cls-1" d="M170.16,150.57q4.77-4.38,13.3-4.38a21.49,21.49,0,0,1,9.5,1.92,13.45,13.45,0,0,1,8,12.61,12,12,0,0,1-2.38,7.84,11.79,11.79,0,0,1-5.43,3.94v.29q8.75,3.26,8.75,12.44a15.18,15.18,0,0,1-2.1,8,14.15,14.15,0,0,1-6.07,5.42,21.31,21.31,0,0,1-9.47,2q-9,0-14.27-4.37t-5.46-13.41h13.81a6.11,6.11,0,0,0,1.23,4.48,5.13,5.13,0,0,0,4.12,1.59,4.21,4.21,0,0,0,3.28-1.3,4.91,4.91,0,0,0,1.2-3.47,4.7,4.7,0,0,0-1.77-4c-1.19-.86-3.1-1.3-5.75-1.3h-2.53V167.3h2.46a9.6,9.6,0,0,0,4.66-.9c1.28-.65,1.92-2,1.92-3.94a4.65,4.65,0,0,0-1.09-3.36,3.91,3.91,0,0,0-3-1.12,3.4,3.4,0,0,0-3.07,1.48,7.36,7.36,0,0,0-1.13,3.65H165.1Q165.39,154.94,170.16,150.57Z"/></svg>