<svg id="Capa_1" data-name="Capa 1" xmlns="http://www.w3.org/2000/svg" viewBox="0 0 312.68 304.97"><defs><style>.cls-1{fill:#881919;}</style></defs><title>Iogo_hazpanencasa</title><path class="cls-1" d="M286.24,164.53a102.81,102.81,0,0,0-80-90.16V61.43a17.32,17.32,0,0,0-4.18-34.13H165.43a17.32,17.32,0,0,0-4.18,34.13v13A102.27,102.27,0,0,0,111.09,102a103.37,103.37,0,0,0-8.65,9.82l-.39,0H65.75a5.1,5.1,0,0,0,0,10.19H95.5a102.16,102.16,0,0,0-9,19.58H31a5.1,5.1,0,0,0,0,10.19H83.59a103.55,103.55,0,0,0-2.53,19.58H58.53a5.1,5.1,0,0,0,0,10.19H81.22a103.57,103.57,0,0,0,3.18,19.58h-33a5.09,5.09,0,0,0,0,10.18H87.65a102.92,102.92,0,0,0,86,65.88c3.36.33,6.73.49,10.09.49a103.18,103.18,0,0,0,56.16-16.59,5.1,5.1,0,0,0-5.56-8.54,92.71,92.71,0,1,1,27.31-27.34,5.09,5.09,0,1,0,8.54,5.55A103.23,103.23,0,0,0,286.24,164.53ZM158.3,44.62a7.14,7.14,0,0,1,7.13-7.13h36.68a7.14,7.14,0,0,1,0,14.27H165.43A7.14,7.14,0,0,1,158.3,44.62Zm13.14,28V61.94H196.1v10.7A103.79,103.79,0,0,0,171.44,72.66Z"/><path class="cls-1" d="M253,238.83a5.09,5.09,0,1,0,3.6,1.49A5.16,5.16,0,0,0,253,238.83Z"/><path class="cls-1" d="M183.85,95.74a79,79,0,1,0,79,79A79.12,79.12,0,0,0,183.85,95.74Zm0,147.86a68.84,68.84,0,1,1,68.83-68.83A68.91,68.91,0,0,1,183.85,243.6Z"/><path class="cls-1" d="M238.31,169.73h-4.72a5.1,5.1,0,0,0,0,10.19h4.72a5.1,5.1,0,1,0,0-10.19Z"/><path class="cls-1" d="M134.1,169.61h-4.72a5.1,5.1,0,0,0,0,10.19h4.72a5.1,5.1,0,1,0,0-10.19Z"/><path class="cls-1" d="M183.91,130.11A5.09,5.09,0,0,0,189,125V120.3a5.09,5.09,0,1,0-10.18,0V125A5.09,5.09,0,0,0,183.91,130.11Z"/><path class="cls-1" d="M183.79,219.42a5.09,5.09,0,0,0-5.1,5.09v4.72a5.1,5.1,0,1,0,10.19,0v-4.72A5.09,5.09,0,0,0,183.79,219.42Z"/><path class="cls-1" d="M31,201.1a5.1,5.1,0,1,0,3.61,1.5A5.13,5.13,0,0,0,31,201.1Z"/><path class="cls-1" d="M178.62,178.91a50.71,50.71,0,0,0,7.62-8.31,14.19,14.19,0,0,0,3.08-8.17,5.74,5.74,0,0,0-1.06-3.66,3.77,3.77,0,0,0-3.12-1.32,3.73,3.73,0,0,0-3.29,1.79,9.19,9.19,0,0,0-1.1,5.24H166.83a21.74,21.74,0,0,1,2.86-10.8,16,16,0,0,1,6.88-6.3,21.67,21.67,0,0,1,9.45-2q9,0,13.41,4.47a15.81,15.81,0,0,1,4.39,11.58,23.12,23.12,0,0,1-5.09,14.28A55.77,55.77,0,0,1,186,187.63h18.32v11.65H167V188.51Q174.08,182.95,178.62,178.91Z"/></svg>