<svg id="Capa_1" data-name="Capa 1" xmlns="http://www.w3.org/2000/svg" viewBox="0 0 312.68 304.97"><defs><style>.cls-1{fill:#881919;}</style></defs><title>Iogo_hazpanencasa</title><g id="outline"><path class="cls-1" d="M163.85,172.53a4,4,0,1,0-8,0c0,2.5-1,3.58-2.52,5.38-1.9,2.17-4.5,5.14-4.5,10.66s2.6,8.48,4.5,10.65c1.57,1.8,2.52,2.88,2.52,5.38a4,4,0,1,0,8,0c0-5.51-2.6-8.49-4.5-10.66-1.56-1.79-2.51-2.87-2.51-5.37s.95-3.59,2.51-5.38C161.25,181,163.85,178,163.85,172.53Z"/><path class="cls-1" d="M187.91,172.53a4,4,0,0,0-8,0c0,2.5-.95,3.58-2.52,5.38-1.89,2.17-4.5,5.14-4.5,10.66s2.61,8.48,4.5,10.65c1.57,1.8,2.52,2.88,2.52,5.38a4,4,0,1,0,8,0c0-5.51-2.6-8.49-4.5-10.66-1.57-1.79-2.52-2.87-2.52-5.37s1-3.59,2.52-5.38C185.31,181,187.91,178,187.91,172.53Z"/><path class="cls-1" d="M139.8,172.53a4,4,0,0,0-8,0c0,2.5-.95,3.58-2.51,5.38-1.9,2.17-4.5,5.14-4.5,10.66s2.6,8.48,4.5,10.65c1.56,1.8,2.51,2.88,2.51,5.38a4,4,0,0,0,8,0c0-5.51-2.6-8.49-4.5-10.66-1.57-1.79-2.52-2.87-2.52-5.37s.95-3.59,2.52-5.38C137.2,181,139.8,178,139.8,172.53Z"/><path class="cls-1" d="M248.55,96.36H64.13a4,4,0,0,0-4,4V244.69a4,4,0,0,0,4,4H248.55a4,4,0,0,0,4-4V100.37A4,4,0,0,0,248.55,96.36Zm-4,144.32H68.14V104.38h176.4Z"/><path class="cls-1" d="M254.56,32.21H58.12a22.07,22.07,0,0,0-22,22V250.71a22.07,22.07,0,0,0,22,22H254.56a22.08,22.08,0,0,0,22.05-22V54.26A22.08,22.08,0,0,0,254.56,32.21Zm-210.48,22a14.06,14.06,0,0,1,14-14H254.56a14.05,14.05,0,0,1,14,14v18H44.08ZM254.56,264.74H58.12a14.06,14.06,0,0,1-14-14V80.32H268.59V250.71A14.05,14.05,0,0,1,254.56,264.74Z"/><path class="cls-1" d="M184.4,44.24H128.27a4,4,0,0,0-4,4v16a4,4,0,0,0,4,4H184.4a4,4,0,0,0,4-4v-16A4,4,0,0,0,184.4,44.24Zm-4,16H132.28v-8h48.11Z"/><path class="cls-1" d="M88.18,152.48H224.49a12,12,0,0,0,4-23.36V116.4a4,4,0,0,0-4-4h-16a4,4,0,0,0-4,4v12H108.23v-12a4,4,0,0,0-4-4h-16a4,4,0,0,0-4,4v12.72a12,12,0,0,0,4,23.36Zm124.28-32.07h8v8h-8Zm-120.27,0h8v8h-8Zm-4,16H224.49a4,4,0,0,1,0,8H88.18a4,4,0,0,1,0-8Z"/><path class="cls-1" d="M104.22,44.24a12,12,0,1,0,12,12A12,12,0,0,0,104.22,44.24Zm0,16a4,4,0,1,1,4-4A4,4,0,0,1,104.22,60.28Z"/><path class="cls-1" d="M72.15,44.24a12,12,0,1,0,12,12A12,12,0,0,0,72.15,44.24Zm0,16a4,4,0,1,1,4-4A4,4,0,0,1,72.15,60.28Z"/><path class="cls-1" d="M240.53,44.24a12,12,0,1,0,12,12A12,12,0,0,0,240.53,44.24Zm0,16a4,4,0,1,1,4-4A4,4,0,0,1,240.53,60.28Z"/><path class="cls-1" d="M208.46,44.24a12,12,0,1,0,12,12A12,12,0,0,0,208.46,44.24Zm0,16a4,4,0,1,1,4-4A4,4,0,0,1,208.46,60.28Z"/><path class="cls-1" d="M192.42,224.65H120.26a4,4,0,1,0,0,8h72.16a4,4,0,1,0,0-8Z"/><path class="cls-1" d="M212.46,224.65h-4a4,4,0,1,0,0,8h4a4,4,0,1,0,0-8Z"/></g></svg>