<svg id="Capa_1" data-name="Capa 1" xmlns="http://www.w3.org/2000/svg" viewBox="0 0 312.68 304.97"><defs><style>.cls-1{fill:#881919;}</style></defs><title>Iogo_hazpanencasa</title><path class="cls-1" d="M297.3,245.09l-15.74-39.2a72.72,72.72,0,0,0,4.32-38.77l5.28-9.13a31.14,31.14,0,0,0,0-31L246.83,50.19A31.1,31.1,0,0,0,220,34.68H131.31a31.11,31.11,0,0,0-26.87,15.51L95.12,66.33A13.82,13.82,0,0,0,80.62,74L75.51,84.62a13.6,13.6,0,0,0-4.18-3.11A13.82,13.82,0,0,0,52.91,88l-13.42,27.9s-6.08,12.78-7.28,19a72.7,72.7,0,0,0,1.59,39.64L15.49,212.52a4.33,4.33,0,0,0,7.62,4.1,3.7,3.7,0,0,0,.21-.33L42.4,176.62a4.35,4.35,0,0,0,.18-3.32,65.13,65.13,0,0,1,2.72-49.5L60.73,91.73A5.12,5.12,0,0,1,70,96.17l-7,14.57a4.33,4.33,0,0,0,2,5.79,4.24,4.24,0,0,0,1,.32,4.34,4.34,0,0,0,4.82-2.35L88.05,78.58l1.07-1.85a5.12,5.12,0,0,1,6.16-1.37c.13.07.24.15.36.23a5.09,5.09,0,0,1,2,6.6l-.07.14L80,118.94a4.34,4.34,0,0,0,7.83,3.76L110,76.64a5.11,5.11,0,0,1,9.22,4.43L97,127.14a4.34,4.34,0,0,0,7.82,3.76l17.68-36.74a5.11,5.11,0,1,1,9.22,4.43L110.39,143l0,.08-7.79,16.2a4.34,4.34,0,0,0,6.19,5.58L129,152.41a6.8,6.8,0,0,1,8.65,10.3l-.87,1a91.56,91.56,0,0,1-45.6,27.75c-1.72.44-3.45.82-5.19,1.16-.58.11-1.15.24-1.74.34a4.36,4.36,0,0,0-2.84,1.88,4.59,4.59,0,0,0-.33.52L62,234.91a4.34,4.34,0,0,0,.29,4.25,4.27,4.27,0,0,0,1.74,1.54,4.33,4.33,0,0,0,5.79-2L86.6,203.85l17.84,30.91a31.11,31.11,0,0,0,26.87,15.51H220a30.86,30.86,0,0,0,13.21-3l8.16,20.33A4.34,4.34,0,0,0,247,270a2.85,2.85,0,0,0,.3-.16,4.32,4.32,0,0,0,2.12-5.49l-8.83-22-2-5-2.12-5.26-3.4-8.49a4.37,4.37,0,0,0-3-2.6,91.52,91.52,0,0,1-50.46-32.67l-.81-1a6.8,6.8,0,0,1,9.32-9.71l19.35,13.79A4.34,4.34,0,0,0,214,186.2l-6.7-16.69,0-.08-18.37-45.75c-2.44-6.07,7-10.13,9.49-3.81l15.2,37.84a4.34,4.34,0,0,0,8.06-3.24L202.57,107a5.69,5.69,0,0,1,2.84-6.66,5.12,5.12,0,0,1,6.65,2.84l19.05,47.44a4.34,4.34,0,0,0,8.06-3.24L224,109.58a5.11,5.11,0,1,1,9.49-3.81l15.19,37.84a4.34,4.34,0,0,0,8.06-3.23l-6-15a5.11,5.11,0,0,1,.43-4.62c1.93-3.09,7.7-2.58,9.06.81l13.27,33a63.17,63.17,0,0,1,2.82,8.88A65.56,65.56,0,0,1,278,180.74a64.47,64.47,0,0,1-5.14,23.41,4.37,4.37,0,0,0,0,3.33l16.4,40.85a4.39,4.39,0,0,0,5.65,2.41A4.35,4.35,0,0,0,297.3,245.09Zm-47-134.43a13.79,13.79,0,0,0-4.38,2.82l-4.39-10.94a13.82,13.82,0,0,0-17.95-7.67,13.62,13.62,0,0,0-4.54,3A13.8,13.8,0,0,0,193.81,108a13.55,13.55,0,0,0-5.34,1,13.81,13.81,0,0,0-7.66,18l19.58,48.76-7.28-5.19a15.48,15.48,0,0,0-21.22,22.1l.81,1a99.09,99.09,0,0,0,14.24,14.85s4.63,5.62,15.91,11.05a99.9,99.9,0,0,0,22.94,9.33l3.6,9a20.79,20.79,0,0,1-9.43,2.31H131.31a20.94,20.94,0,0,1-18.08-10.44L95.63,199.2a100.32,100.32,0,0,0,15.8-5.9c11.62-4.67,16.61-10,16.61-10a99.87,99.87,0,0,0,15.2-13.88l.87-1A15.48,15.48,0,0,0,124.41,145l-7.6,4.69,22.78-47.35a13.82,13.82,0,0,0-6.46-18.42,13.66,13.66,0,0,0-5.26-1.35,13.76,13.76,0,0,0-22.24-14.17l7.6-13.16a20.94,20.94,0,0,1,18.08-10.44H220a21,21,0,0,1,18.09,10.44L282.37,132a20.91,20.91,0,0,1,0,20.87l-.25.44c-1.25-3.56-2.33-6.3-2.33-6.3l-11.54-28.73A13.81,13.81,0,0,0,250.3,110.66Z"/><path class="cls-1" d="M136.83,224.29a16.82,16.82,0,0,1-15.55-13.38c-1-4.78-8.38-2.75-7.33,2a24.49,24.49,0,0,0,22.88,19C141.72,232.11,141.71,224.5,136.83,224.29Z"/><path class="cls-1" d="M209.09,52.44c-4.58-1.75-6.56,5.61-2,7.34a33.38,33.38,0,0,1,14.25,10.7c3.05,3.83,8.4-1.58,5.39-5.38A40.64,40.64,0,0,0,209.09,52.44Z"/></svg>