<svg id="Capa_1" data-name="Capa 1" xmlns="http://www.w3.org/2000/svg" viewBox="0 0 312.68 304.97"><defs><style>.cls-1{fill:#881919;}</style></defs><title>Iogo_hazpanencasa</title><path class="cls-1" d="M269.73,110H222.81l54.52-54.52a15.5,15.5,0,1,0-21.92-21.93L179,110H43a12.15,12.15,0,0,0,0,24.3h4v12.15A85.11,85.11,0,0,0,98,224.3a20.22,20.22,0,0,0-14.53,19.33v4.05H229.23v-4.05A20.22,20.22,0,0,0,214.7,224.3a85.11,85.11,0,0,0,51-77.86V134.29h4.05a12.15,12.15,0,0,0,0-24.3Zm-8.6-70.72A7.4,7.4,0,1,1,271.6,49.74L211.36,110h-21Zm-106.47,95-4.6,4.6a11.52,11.52,0,0,1-8.47,3.56c-9.31-.42-19.16,3.06-27.43,9.42a85.06,85.06,0,0,0-14.52-1.38c-20.52,0-35.4,4.1-43,11.51a76.75,76.75,0,0,1-1.58-15.56V134.29Zm5.68,35.37c.41,8.94-3.8,18.73-11.28,26.2-12.51,12.52-30.34,15.07-39.73,5.68-4.41-4.41-6.33-10.87-5.42-18.18,1-7.7,4.91-15.35,11.1-21.55,7.48-7.47,17.3-11.72,26.2-11.27a19.56,19.56,0,0,0,14.57-5.92l10.33-10.33h20.95l-20.8,20.8A19.52,19.52,0,0,0,160.34,169.66ZM95.88,182.35a34.94,34.94,0,0,0,0,8.55c-13.9-.39-24.82-2.91-31.12-7.24a77.26,77.26,0,0,1-5.16-11.55c2.66-8.25,18.09-13.52,40.05-13.52,2.27,0,4.61.13,7,.36A44.88,44.88,0,0,0,95.88,182.35ZM209,231.48a12.18,12.18,0,0,1,11.46,8.1H92.24a12.17,12.17,0,0,1,11.45-8.1Zm-28.34-8.1H132a76.78,76.78,0,0,1-58.71-27.32,100.29,100.29,0,0,0,24.7,3,26.37,26.37,0,0,0,5.58,8.22c5.36,5.36,12.62,8,20.41,8,10.43,0,21.8-4.68,30.78-13.65a47.46,47.46,0,0,0,12.3-21c16.4-7.15,31.9-13.87,45.93-13.87,14.88,0,28.64,1.8,40.13,5.2A77,77,0,0,1,180.64,223.38Zm76.94-76.94a77,77,0,0,1-2.13,17.68c-12.24-3.62-26.79-5.53-42.42-5.53-14.32,0-29.1,5.87-44.63,12.58,0-.63.06-1.26,0-1.88a11.44,11.44,0,0,1,3.55-8.47l26.53-26.53h59.07Zm12.15-20.25H43a4,4,0,0,1,0-8.1H269.73a4,4,0,0,1,0,8.1Z"/><path class="cls-1" d="M140,158.59c-6.47,0-13.69,3.34-19.3,8.95-4.85,4.86-8.06,11-8.79,16.82-.59,4.79.51,8.86,3.11,11.45a12.32,12.32,0,0,0,9,3.27c6.48,0,13.69-3.34,19.3-9,4.85-4.86,8.06-11,8.79-16.82.59-4.79-.51-8.86-3.11-11.45A12.32,12.32,0,0,0,140,158.59Zm4.06,13.71c-.51,4.09-2.88,8.49-6.49,12.1-4.06,4.06-9.26,6.58-13.57,6.58a4.77,4.77,0,0,1-3.25-.89c-.76-.76-1.07-2.57-.81-4.72.51-4.08,2.88-8.49,6.49-12.1,4.06-4.06,9.26-6.58,13.57-6.58a4.77,4.77,0,0,1,3.25.89C144.05,168.34,144.36,170.15,144.1,172.3Z"/></svg>