<svg id="Capa_1" data-name="Capa 1" xmlns="http://www.w3.org/2000/svg" viewBox="0 0 312.68 304.97"><defs><style>.cls-1{fill:#881919;}</style></defs><title>Iogo_hazpanencasa</title><path class="cls-1" d="M279,171.16a4.07,4.07,0,0,0-5.27,6.21c8.81,7.48,13.48,15.85,13.49,24.2a19.61,19.61,0,0,1-6.14,14.49c-6.93,6.94-19.83,12.1-38.33,15.35-16.61,2.92-37.42,4.34-63.62,4.28-40.45-.05-69-3.55-86.84-10.67q10.31-7.34,22.12-17.66a14.5,14.5,0,0,0,25.57-8,85.64,85.64,0,0,0,0-16.09Q150.73,172.6,159.4,163a54.91,54.91,0,0,1,7.42,33.54,14.68,14.68,0,0,0,13.09,16,14.51,14.51,0,0,0,15.85-13.13,84.23,84.23,0,0,0-9.86-48.61,218.16,218.16,0,0,1,22.85,1.89,58.68,58.68,0,0,1,12.46,27.91,56,56,0,0,1,0,16A14.54,14.54,0,1,0,250,200.81a85.38,85.38,0,0,0,0-24.42,83.81,83.81,0,0,0-3.42-14.28,122,122,0,0,1,11.54,5.11,4.07,4.07,0,0,0,3.7-7.26c-22.38-11.39-53.32-17.67-85.13-17.37q3.3-4.26,6.13-8.31c11.93-17,17.73-31,17.73-42.63a27.72,27.72,0,0,0-8.3-20.36c-11.52-11.49-31-13.3-54.9-5.1-22.9,7.86-47.45,24.09-69.11,45.69-31.38,31.29-50.87,68-50.87,95.9,0,11.55,3.51,21.16,10.17,27.8a27.7,27.7,0,0,0,20.31,8.25c8.47,0,18.31-3.08,29.44-9.24q3.42-1.91,7-4.19c18.57,9,49.63,13.38,94.82,13.44,25.83,0,48.33-1.47,65-4.41,20.46-3.59,34.42-9.35,42.67-17.61a27.73,27.73,0,0,0,8.54-20.26c0-10.82-5.68-21.33-16.37-30.4Zm-42.47-12.48a76.21,76.21,0,0,1,5.39,18.9,77.11,77.11,0,0,1,0,22.09,6.35,6.35,0,0,1-7.21,5.46,6.5,6.5,0,0,1-5.44-7.36,63.88,63.88,0,0,0,0-18.32A64.64,64.64,0,0,0,220,154.6c5.71,1.13,11.23,2.49,16.49,4.08ZM131.86,198.6a6.36,6.36,0,0,1-11.38,3.34q5.68-5.16,11.73-11c0,2.55-.11,5.11-.35,7.66Zm54.76-22a76.83,76.83,0,0,1,1,22.06,6.39,6.39,0,0,1-7,5.81,6.52,6.52,0,0,1-5.76-7.12,63.18,63.18,0,0,0-9.87-40.68c1.7-2,3.35-3.89,4.93-5.79,2.13-.08,4.28-.14,6.45-.16a77.11,77.11,0,0,1,10.18,25.88Zm-66.31-94a76,76,0,0,1,17.16,9.54,77.53,77.53,0,0,1,15.64,15.59,6.36,6.36,0,0,1-.74,8.57,6.53,6.53,0,0,1-9.55-1,63.57,63.57,0,0,0-37.06-24c4.84-3.24,9.7-6.18,14.55-8.77ZM40.4,161.08a75.79,75.79,0,0,1,17.79,8.85A76.92,76.92,0,0,1,74.51,184.8a6.37,6.37,0,0,1-.35,8.6,6.51,6.51,0,0,1-9.57-.54,64.08,64.08,0,0,0-13.54-12.34,63.54,63.54,0,0,0-16.56-7.92c1.74-3.8,3.71-7.65,5.91-11.52Zm32.9,66.38c-18.35,10.16-31.45,10.93-40,2.35-5.16-5.15-7.78-12.56-7.78-22,0-8.33,2.06-17.73,5.85-27.63a55.56,55.56,0,0,1,15.17,7.12,55.84,55.84,0,0,1,11.82,10.78,14.69,14.69,0,0,0,21.6,1.11,14.47,14.47,0,0,0,.89-19.54,85.49,85.49,0,0,0-18-16.44A84.6,84.6,0,0,0,44.67,154c3.34-5.28,7.06-10.58,11.12-15.8,8.32.47,19.71,2.62,30.21,9.71a55.84,55.84,0,0,1,11.82,10.78,14.53,14.53,0,1,0,22.48-18.43,86.36,86.36,0,0,0-10.64-10.82,4.07,4.07,0,0,0-5.28,6.2,78.33,78.33,0,0,1,9.64,9.8,6.37,6.37,0,0,1-.82,9,6.49,6.49,0,0,1-9.1-1,64.32,64.32,0,0,0-13.54-12.34A66.48,66.48,0,0,0,62,130.57q4.84-5.67,10.2-11.14a79,79,0,0,1,17.18,6.22A4.07,4.07,0,0,0,93,118.37,86.49,86.49,0,0,0,79,112.82,216.75,216.75,0,0,1,96.46,98,58.67,58.67,0,0,1,125,108.92a55.55,55.55,0,0,1,11.32,11.29,14.72,14.72,0,0,0,21.54,2.09,14.46,14.46,0,0,0,1.77-19.48,84.82,84.82,0,0,0-17.3-17.23,83,83,0,0,0-12.51-7.68c3.41-1.52,6.8-2.87,10.15-4,9-3.1,17.25-4.64,24.42-4.64,9.33,0,16.88,2.61,22.08,7.8a19.64,19.64,0,0,1,5.9,14.6c0,9.8-5.46,22.57-16.25,37.95A208.47,208.47,0,0,1,157,153.52c-24.27,25.25-53.66,57.31-83.69,73.94Z"/></svg>