<svg id="Capa_1" data-name="Capa 1" xmlns="http://www.w3.org/2000/svg" viewBox="0 0 312.68 304.97"><defs><style>.cls-1{fill:#881919;}</style></defs><title>Iogo_hazpanencasa</title><path class="cls-1" d="M169.14,198.06V62.88a4.25,4.25,0,0,0-1.26-3,3.65,3.65,0,0,0-3-1.24l-17.07.05a4.27,4.27,0,0,0-4.26,4.27V198.06A29.88,29.88,0,0,0,150,254.25a31.88,31.88,0,0,0,6.31.66,29.87,29.87,0,0,0,12.85-56.85Zm7.32,34.08a21.38,21.38,0,0,1-6.68,9.46h0A21.32,21.32,0,1,1,149.2,205a4.26,4.26,0,0,0,2.87-4V67.19l8.54,0V200.93a4.27,4.27,0,0,0,2.86,4A21.3,21.3,0,0,1,176.46,232.14Z"/><path class="cls-1" d="M203.08,195.14a55.55,55.55,0,0,0-16.87-16.88V152.49H199a4.27,4.27,0,1,0,0-8.53h-12.8v-8.53H199a4.27,4.27,0,1,0,0-8.54h-12.8v-8.53H199a4.27,4.27,0,1,0,0-8.54h-12.8v-8.53H199a4.27,4.27,0,1,0,0-8.54h-12.8V84.22H199a4.27,4.27,0,1,0,0-8.54h-12.8V54.35a29.87,29.87,0,0,0-59.74,0V178.26a55.47,55.47,0,1,0,76.61,16.88ZM156.34,272a46.94,46.94,0,0,1-23.47-87.63,4.26,4.26,0,0,0,2.13-3.69V54.35a21.34,21.34,0,1,1,42.67,0V180.66a4.27,4.27,0,0,0,2.14,3.69A46.94,46.94,0,0,1,156.34,272Z"/></svg>