<svg id="Capa_1" data-name="Capa 1" xmlns="http://www.w3.org/2000/svg" viewBox="0 0 312.68 304.97"><defs><style>.cls-1{fill:#881919;}</style></defs><title>Iogo_hazpanencasa</title><path class="cls-1" d="M55.29,140.06A34.57,34.57,0,0,0,32,168.94c-.63,5,7.27,5,7.9,0a26.32,26.32,0,0,1,17.46-21.27C62.16,146,60.11,138.4,55.29,140.06Z"/><path class="cls-1" d="M281.05,140.85l-1.21-1.36c-7.88-8.91-10.41-17.19-13.34-26.78-2.19-7.17-4.45-14.58-9.14-22.7-9.6-16.64-29.91-23.27-57.19-18.69-32.35,5.44-72.94,27-94.2,50.87a35,35,0,0,0-9.53-6.46c-7.81-3.51-17.35-4.19-28.35-2-19.31,3.8-43.68,21.2-51.07,43.72-4.6,14-1.6,27.39,8.68,38.59,6.31,6.89,15.9,10.44,28,10.44a69.43,69.43,0,0,0,7.34-.41,88.33,88.33,0,0,0,14.35-2.82C78,213.83,85,222.32,95.56,227.42s20,7.64,28.72,7.64a40.86,40.86,0,0,0,11.07-1.49c9.56-2.68,18.32-9.08,26.78-19.55.4-.5.75-1,1.13-1.47a241.94,241.94,0,0,0,42.56,4c1.32,0,2.59,0,3.79,0,22.44-.5,54.53-3.19,74.08-20.58C309.5,172.94,294.39,155.9,281.05,140.85ZM74.22,192.57a77.79,77.79,0,0,1-14.32,3c-11.93,1.28-21.33-1.1-26.45-6.68-7.66-8.34-9.82-17.83-6.42-28.19,5.91-18,27.05-33.51,43.09-36.67A51,51,0,0,1,80,123a29.33,29.33,0,0,1,12.11,2.34,24.79,24.79,0,0,1,7.33,5.17,30.58,30.58,0,0,1,3.53,4.22,38.53,38.53,0,0,1,3,5.16c.4.84.79,1.7,1.16,2.59-1.1.5-2.18,1.05-3.25,1.62a53.26,53.26,0,0,0-6.79,4.41c-.27.2-.55.39-.82.6a54.46,54.46,0,0,0-5.1,4.64C80.93,164.27,74.51,179,74.22,192.57Zm90.13-5.06a39.92,39.92,0,0,1-5.74,13.4q-1.44,2.28-3.23,4.63c-.47.62-.94,1.23-1.44,1.86-.76.94-1.51,1.81-2.27,2.67-6.28,7.12-12.57,11.51-19.16,13.36-9,2.51-19.54.72-32.37-5.49-8.12-3.93-13-10-14.75-18.12-.19-.92-.37-1.85-.48-2.82s-.15-1.75-.18-2.64a36.82,36.82,0,0,1,.36-5.89,49.36,49.36,0,0,1,7.73-20,50.69,50.69,0,0,1,4.1-5.42,48,48,0,0,1,4.74-4.72c.4-.33.79-.69,1.19-1a42.49,42.49,0,0,1,7.23-4.64,45.61,45.61,0,0,1,4.94-2.12,45.13,45.13,0,0,1,5.07-1.47,39.06,39.06,0,0,1,25.16,2.36C158.76,157.83,167.15,173.66,164.35,187.51Zm112.34.54c-17,15.09-46.54,17.46-67.31,17.92A223.73,223.73,0,0,1,169.59,203a47.25,47.25,0,0,0,5.08-13.43c3.78-18.69-6.94-39.18-24.94-47.65-10-4.69-21.62-5.53-32.65-2.89a51.41,51.41,0,0,0-4.33-8.58C131,109.22,169.24,87.2,201.92,81.7a89.19,89.19,0,0,1,14.52-1.3c12.52,0,25.16,3.37,31.8,14.87,4.09,7.09,6.08,13.61,8.19,20.52,3,9.86,6.12,20,15.52,30.67l1.22,1.38C287.68,164.2,293.89,172.74,276.69,188.05Z"/><path class="cls-1" d="M103.06,163.28c-.22.2-.42.43-.63.64a35.82,35.82,0,0,0-4,4.74,34.44,34.44,0,0,0-3.29,5.77A35.28,35.28,0,0,0,92,190.93a36.31,36.31,0,0,0,.73,5.57,35.73,35.73,0,0,0,4,10.4c2.55,4.4,9.38.42,6.82-4A27.86,27.86,0,0,1,100,192.44a27.32,27.32,0,0,1-.06-6.26,28.35,28.35,0,0,1,.54-3.32,27.33,27.33,0,0,1,1.71-5c.13-.3.28-.6.43-.9a27.85,27.85,0,0,1,3.11-4.94,28.43,28.43,0,0,1,2.87-3.16C112.35,165.37,106.76,159.79,103.06,163.28Z"/><path class="cls-1" d="M220.14,136.54c-11.42,4.88-22.23-12.6-31.12-17.18-6.55-3.38-13.36-4-19.6.22-4.18,2.84-.23,9.69,4,6.82,11.2-7.6,22.41,9.71,30.93,15,6.55,4,12.71,5,19.8,2C228.79,141.36,224.77,134.56,220.14,136.54Z"/></svg>